<?xml version="1.0" encoding="UTF-8" standalone="no"?>
<!-- Created with Inkscape (http://www.inkscape.org/) -->

<svg
   width="27.421mm"
   height="30.20052mm"
   viewBox="0 0 27.421 30.200519"
   version="1.1"
   id="svg1"
   xml:space="preserve"
   inkscape:version="1.3.2 (1:1.3.2+202311252150+091e20ef0f)"
   sodipodi:docname="Bonsai.ML.LinearDynamicalSystems.svg"
   xmlns:inkscape="http://www.inkscape.org/namespaces/inkscape"
   xmlns:sodipodi="http://sodipodi.sourceforge.net/DTD/sodipodi-0.dtd"
   xmlns="http://www.w3.org/2000/svg"
   xmlns:svg="http://www.w3.org/2000/svg"><sodipodi:namedview
     id="namedview1"
     pagecolor="#1100ff"
     bordercolor="#ffffff"
     borderopacity="1"
     inkscape:showpageshadow="0"
     inkscape:pageopacity="0"
     inkscape:pagecheckerboard="true"
     inkscape:deskcolor="#d1d1d1"
     inkscape:document-units="mm"
     showguides="false"
     inkscape:zoom="2.5953041"
     inkscape:cx="39.687064"
     inkscape:cy="78.025539"
     inkscape:window-width="1280"
     inkscape:window-height="715"
     inkscape:window-x="0"
     inkscape:window-y="0"
     inkscape:window-maximized="1"
     inkscape:current-layer="g1"
     showborder="true"
     inkscape:clip-to-page="false" /><defs
     id="defs1" /><g
     inkscape:groupmode="layer"
     id="layer3"
     inkscape:label="Layer 1"
     style="display:inline;stroke:#000000;stroke-opacity:1"
     transform="translate(0.82635664,3.178795)"><g
       id="g1"
       transform="translate(0.71365754,1.8496201)"><path
         style="display:inline;fill:#ffffff;fill-opacity:1;stroke:none;stroke-width:0.351189;stroke-linecap:butt;stroke-linejoin:miter;stroke-dasharray:none;stroke-opacity:1"
         d="M 10.2525,21.75579 C 7.6912003,20.994415 7.1284213,22.316879 5.8457873,19.733314 7.3103093,19.576194 8.7454023,19.257785 10.2525,21.75579 Z"
         id="path12-9-0-5"
         sodipodi:nodetypes="ccc" /><path
         id="path1"
         style="fill:#ffffff;fill-opacity:1;stroke:none;stroke-width:0.19432;stroke-linecap:round;stroke-dasharray:none;stroke-opacity:1"
         d="M 11.991976 -1.6952852 L 11.992493 -1.6947685 C 11.114464 -1.6947877 10.40239 -0.98271527 10.402409 -0.10468463 C 10.402973 0.34830581 10.596845 0.77905658 10.935193 1.080256 L 10.259782 1.7561837 L 10.259782 4.2557727 L 8.5709966 4.2557727 L 7.5927617 3.2780546 C 8.003259 2.9799588 8.2469883 2.5037939 8.2485356 1.9964791 C 8.2485547 1.1184497 7.5364823 0.40637613 6.6584518 0.40639528 C 5.7804615 0.40643132 5.0688656 1.1184891 5.0688847 1.9964791 C 5.0704647 2.5669333 5.37743 3.0924846 5.8734868 3.3741728 L 8.063534 5.56422 L 10.259782 5.56422 L 10.259782 8.7857288 L 8.3808273 8.7857288 C 8.2468057 8.5227285 7.9763087 8.3568798 7.6811284 8.3568144 C 7.2475004 8.3568223 6.8961713 8.7081513 6.8961634 9.1417794 C 6.8961713 9.5754062 7.2475015 9.9272522 7.6811284 9.9272612 C 7.8677335 9.9271103 8.0481857 9.8602838 8.1901413 9.739159 L 10.259782 9.739159 L 10.259782 13.989029 L 6.4951543 13.989029 L 5.7572148 12.711071 C 5.7864608 12.592276 5.8018898 12.470632 5.8032068 12.348302 C 5.8031711 11.470309 5.091631 10.758715 4.2136398 10.758735 C 3.3356497 10.758715 2.623592 11.470309 2.623556 12.348302 C 2.6235357 13.22634 3.3356103 13.938398 4.2136398 13.938386 C 4.5281849 13.9378 4.8351345 13.843455 5.0962733 13.668118 L 5.9267135 15.10679 L 10.259782 15.10679 L 10.259782 21.761164 L 12.105665 21.761164 L 12.105665 18.537072 L 12.158891 18.537072 L 15.430009 16.648298 C 15.808589 16.487577 15.832052 16.108 15.832052 16.000275 L 17.159103 16.000275 C 17.40855 16.585521 17.983287 16.965634 18.619479 16.966625 C 19.497472 16.966592 20.209069 16.254533 20.209046 15.376541 C 20.209012 14.498593 19.497438 13.787008 18.619479 13.786974 C 17.981969 13.788074 17.406627 14.169893 17.158069 14.756941 L 15.688392 14.756941 C 15.512795 14.476333 15.205489 14.305415 14.874488 14.304255 C 14.342046 14.304289 13.910184 14.736107 13.910206 15.268537 C 13.9106 15.494551 13.990256 15.712907 14.135515 15.886071 L 12.114966 17.052924 L 12.114966 12.581879 L 18.076876 9.1397123 C 18.077653 9.1397799 18.07771 9.1396537 18.078943 9.1397123 C 18.357344 9.1305924 18.60135 8.9511472 18.692859 8.6880603 L 20.612639 8.6880603 C 20.905837 8.9613193 21.291362 9.1138221 21.692159 9.1149077 C 22.570152 9.1149268 23.282208 8.4033365 23.282243 7.5253406 C 23.282265 6.6473054 22.570197 5.9352376 21.692159 5.9352568 C 20.814167 5.9352928 20.10258 6.6473438 20.102592 7.5253406 C 20.103177 7.5345806 20.103426 7.5439779 20.104659 7.5532459 L 18.642733 7.5532459 L 18.632398 2.7013456 C 19.209084 2.4477655 19.581592 1.877664 19.582211 1.2476876 C 19.582233 0.36965242 18.870681 -0.34189976 17.992644 -0.34187946 C 17.114617 -0.34189976 16.402538 0.36965129 16.40256 1.2476876 C 16.40366 1.8956492 16.799105 2.4780525 17.400432 2.7194324 L 17.400432 8.2937691 L 11.434904 11.738003 L 11.43077 11.733352 L 11.43077 2.6233142 L 12.787277 1.2673246 C 13.277726 0.98403401 13.580079 0.46117944 13.581543 -0.1052014 C 13.581565 -0.98319254 12.86998 -1.6952503 11.991976 -1.6952852 z " /><rect
         style="fill:#ffffff;fill-opacity:1;stroke:none;stroke-width:1;stroke-linecap:round;stroke-linejoin:round;stroke-miterlimit:1"
         id="rect2"
         width="0.54334724"
         height="3.6816683"
         x="11.983287"
         y="18.080351" /></g></g></svg>
