<?xml version="1.0" standalone="yes"?>
<!DOCTYPE svg PUBLIC "-//W3C//DTD SVG 1.1//EN" "http://www.w3.org/Graphics/SVG/1.1/DTD/svg11.dtd"[
<!ENTITY E49 'matrix(1.00 0.00 0.00 1.00 84.00 324.00 ) '><!ENTITY E17 'stroke:rgb(255,255,255);fill:none;stroke-linecap:butt;stroke-miterlimit:9;opacity:1;stroke-width:1.2;stroke-linejoin:miter;'><!ENTITY E4 'matrix(1.00 0.00 0.00 1.00 244.00 4.00 ) '><!ENTITY E23 'matrix(1.00 0.00 0.00 1.00 244.00 164.00 ) '><!ENTITY E13 'matrix(1.00 0.00 0.00 1.00 244.00 84.00 ) '><!ENTITY E11 'matrix(1.00 0.00 0.00 1.00 0.00 0.00 ) '><!ENTITY E24 'stroke:none;opacity:1;fill:rgb(155,91,179);'><!ENTITY E6 'M 10.824 9.4752 3.5613 15.0588 10.824 20.6107 10.81521 18.3247 6.519011 15.0267 10.82391 11.7422 z '><!ENTITY E7 'stroke:none;fill-rule:evenodd;opacity:1;fill:rgb(255,255,255);'><!ENTITY E3 'stroke:rgb(169,169,169);fill:none;stroke-linecap:butt;stroke-miterlimit:9;opacity:1;stroke-width:2;stroke-linejoin:miter;'><!ENTITY E18 'M 8.3192 8.979 14.5273 14.4561 19.1351 6.9535 8.319099 8.979 6.529999 17.9717 14.5272 14.4561 '><!ENTITY E5 'stroke:none;opacity:1;fill:rgb(91,178,126);'><!ENTITY E15 'M 1.5363 7.8 C 1.99103 6.9385 2.52798 6.1205 3.1403 5.3587 3.7527 4.5967 4.4403 3.8909 5.1968 3.254 5.95315 2.617 6.7782 2.049 7.665299 1.5627 M 0.4537992 19.4997 C 0.1435492 18.4956 -0.05714077 17.4835 -0.1564507 16.4769 -0.2551987 15.4701 -0.2516447 14.4684 -0.1525816 13.4844 -0.05334165 12.5007 0.1414284 11.5347 0.4251484 10.5993 M 7.892348 28.3993 C 7.030958 27.9447 6.212848 27.4077 5.450948 26.7954 4.689008 26.1831 3.983248 25.4954 3.346348 24.739 2.709558 23.9826 2.141548 23.1575 1.655148 22.2704 M 19.49415 29.4993 C 18.48995 29.8096 17.47785 30.0103 16.47125 30.1096 15.46445 30.2084 14.46285 30.2049 13.47895 30.1018 12.49507 30.0028 11.52915 29.8079 10.59365 29.5242 M 28.46365 22.0993 C 28.00892 22.9606 27.472 23.7788 26.85965 24.5407 26.24738 25.3026 25.55945 26.0084 24.80315 26.6453 24.0468 27.2822 23.22175 27.8502 22.33465 28.3365 M 29.54565 10.4995 C 29.85594 11.5037 30.05659 12.5157 30.15594 13.5224 30.25481 14.5292 30.25114 15.531 30.15199 16.5147 30.05279 17.4986 29.85802 18.4646 29.5743 19.4 M 22.10769 1.499998 C 22.96908 1.954698 23.7872 2.491698 24.5491 3.103898 25.31104 3.716298 26.0168 4.404098 26.65369 5.160398 27.29052 5.916898 27.85859 6.741898 28.34499 7.629098 M 10.50499 0.3999977 C 11.50919 0.08969772 12.52109 -0.1109023 13.52779 -0.2103023 14.53469 -0.3090023 15.53619 -0.3055023 16.52009 -0.2103023 17.50401 -0.1111023 18.46999 0.08369771 19.40549 0.3673977 '><!ENTITY E54 'M 4.4028 13 4.93347 11.3266 C 6.15637 11.7667 7.04467 12.1477 7.598371 12.4698 7.45224 11.0476 7.37533 10.0696 7.36764 9.5352 L 9.040441 9.5352 C 9.017365 10.3131 8.92891 11.2873 8.775101 12.4581 9.567261 12.0495 10.4748 11.6723 11.4977 11.3266 L 12.02837 13 C 11.05162 13.3302 10.09407 13.5502 9.155771 13.6601 9.624911 14.0766 10.28637 14.819 11.14007 15.8877 L 9.755671 16.8894 C 9.30959 16.2687 8.782761 15.4241 8.175171 14.3554 7.606041 15.4633 7.106171 16.308 6.675471 16.8894 L 5.314171 15.8877 C 6.206311 14.7642 6.844671 14.0216 7.229171 13.6601 6.237041 13.4637 5.294871 13.2437 4.402771 13 z '><!ENTITY E1 'stroke:rgb(169,169,169);fill:none;stroke-linecap:butt;stroke-miterlimit:9;opacity:1;stroke-width:1;stroke-linejoin:miter;'><!ENTITY E19 'stroke:none;opacity:1;fill:rgb(255,255,255);'><!ENTITY E8 'M 15.365 7.2336 C 15.34647 7.33547 15.32125 7.4371 15.31422 7.5375 14.41077 12.6441 13.49692 17.7495 12.59942 22.8575 12.59508 22.88635 12.6018 22.91223 12.59942 22.94062 L 14.62872 22.94062 C 14.70348 22.53324 14.73679 22.1026 14.8377 21.71462 15.68204 16.94102 16.5365 12.17012 17.3748 7.394619 17.38163 7.340435 17.37866 7.287239 17.3787 7.233579 z '><!ENTITY E39 'matrix(1.00 0.00 0.00 1.00 164.00 164.00 ) '><!ENTITY E16 'M 17.669 23.046 14.5278 14.3891 23.4704 16.8312 '><!ENTITY E25 'M 11.656 8.2 11.99975 8.7 16.31225 14.7937 11.65605 21.4187 11.28105 21.9187 14.74985 21.9187 14.8436 21.7624 17.9998 17.0124 18.46855 17.7 21.15605 21.7624 21.2498 21.9187 24.7498 21.9187 24.40605 21.4187 19.65605 14.6687 24.06225 8.699997 24.406 8.199997 20.9998 8.199997 20.90605 8.324997 18.68725 11.4187 C 18.46251 11.7285 18.22333 12.1062 17.9685 12.4812 17.77046 12.1547 17.58677 11.8424 17.31225 11.4187 L 15.28105 8.356197 15.1873 8.199997 11.6561 8.199997 z '><!ENTITY E47 'matrix(1.00 0.00 0.00 1.00 84.00 244.00 ) '><!ENTITY E37 'matrix(1.00 0.00 0.00 1.00 164.00 84.00 ) '><!ENTITY E44 'matrix(1.00 0.00 0.00 1.00 164.00 324.00 ) '><!ENTITY E56 'matrix(1.00 0.00 0.00 1.00 4.00 404.00 ) '><!ENTITY E33 'matrix(1.00 0.00 0.00 1.00 244.00 324.00 ) '><!ENTITY E22 'M 10.158 33.2 C 3.4054 31.7591 -1.861 26.4692 -3.271 19.71 '><!ENTITY E30 'matrix(1.00 0.00 0.00 1.00 244.00 244.00 ) '><!ENTITY E14 'stroke:none;opacity:1;fill:rgb(238,192,75);'><!ENTITY E53 'matrix(1.00 0.00 0.00 1.00 4.00 324.00 ) '><!ENTITY E41 'matrix(1.00 0.00 0.00 1.00 164.00 244.00 ) '><!ENTITY E9 'M 19.044 9.4746 26.3067 15.0582 19.044 20.6101 19.05279 18.3241 23.34899 15.0261 19.04409 11.7416 z '><!ENTITY E2 'M 31.179 5.2 C 34.9985 11.0918 34.9814 18.682 31.13552 24.557 '>
]>
<svg width="309.8166" height="466.6504" id="SvgGdi_output" xmlns="http://www.w3.org/2000/svg" xmlns:xlink="http://www.w3.org/1999/xlink">
  <style>text { fill: #000; } @media (prefers-color-scheme: dark) { text { fill: #eee; } }</style>
  <rect id="background" height="100.00%" style="fill:none;" width="100.00%" y="0.00" x="0.00" />
  <g style="shape-rendering:auto;" id="root_group">
    <line y1="99.00" style="stroke:rgb(169,169,169);fill:none;stroke-linecap:butt;stroke-miterlimit:9;opacity:1;stroke-width:1;stroke-linejoin:miter;" id="2" x2="240.00" y2="99.00" x1="198.00" />
    <line y1="179.00" style="stroke:rgb(169,169,169);fill:none;stroke-linecap:butt;stroke-miterlimit:9;opacity:1;stroke-width:1;stroke-linejoin:miter;" id="3" x2="240.00" y2="179.00" x1="198.00" />
    <line y1="259.00" style="stroke:rgb(169,169,169);fill:none;stroke-linecap:butt;stroke-miterlimit:9;opacity:1;stroke-width:1;stroke-linejoin:miter;" id="4" x2="240.00" y2="259.00" x1="198.00" />
    <line y1="339.00" style="stroke:rgb(169,169,169);fill:none;stroke-linecap:butt;stroke-miterlimit:9;opacity:1;stroke-width:1;stroke-linejoin:miter;" id="5" x2="240.00" y2="339.00" x1="198.00" />
    <line y1="259.00" style="stroke:rgb(169,169,169);fill:none;stroke-linecap:butt;stroke-miterlimit:9;opacity:1;stroke-width:1;stroke-linejoin:miter;" id="6" x2="160.00" y2="259.00" x1="118.00" />
    <line y1="339.00" style="stroke:rgb(169,169,169);fill:none;stroke-linecap:butt;stroke-miterlimit:9;opacity:1;stroke-width:1;stroke-linejoin:miter;" id="7" x2="160.00" y2="339.00" x1="118.00" />
    <line y1="339.00" style="stroke:rgb(169,169,169);fill:none;stroke-linecap:butt;stroke-miterlimit:9;opacity:1;stroke-width:1;stroke-linejoin:miter;" id="8" x2="80.00" y2="339.00" x1="38.00" />
    <line y1="419.00" style="stroke:rgb(169,169,169);fill:none;stroke-linecap:butt;stroke-miterlimit:9;opacity:1;stroke-width:1;stroke-linejoin:miter;" id="9" x2="80.00" y2="339.00" x1="38.00" />
    <path d="M 31.179 5.2 C 34.9985 11.0918 34.9814 18.682 31.13552 24.557 " style="stroke:rgb(169,169,169);fill:none;stroke-linecap:butt;stroke-miterlimit:9;opacity:1;stroke-width:2;stroke-linejoin:miter;" transform="matrix(1.00 0.00 0.00 1.00 244.00 4.00 ) " id="43" />
    <ellipse id="44" cy="15.00" cx="15.00" transform="matrix(1.00 0.00 0.00 1.00 244.00 4.00 ) " rx="15.00" ry="15.00" style="stroke:none;opacity:1;fill:rgb(91,178,126);" />
    <path d="M 10.824 9.4752 3.5613 15.0588 10.824 20.6107 10.81521 18.3247 6.519011 15.0267 10.82391 11.7422 z " style="stroke:none;fill-rule:evenodd;opacity:1;fill:rgb(255,255,255);" transform="matrix(1.00 0.00 0.00 1.00 244.00 4.00 ) " id="50" />
    <path d="M 15.365 7.2336 C 15.34647 7.33547 15.32125 7.4371 15.31422 7.5375 14.41077 12.6441 13.49692 17.7495 12.59942 22.8575 12.59508 22.88635 12.6018 22.91223 12.59942 22.94062 L 14.62872 22.94062 C 14.70348 22.53324 14.73679 22.1026 14.8377 21.71462 15.68204 16.94102 16.5365 12.17012 17.3748 7.394619 17.38163 7.340435 17.37866 7.287239 17.3787 7.233579 z " style="stroke:none;fill-rule:evenodd;opacity:1;fill:rgb(255,255,255);" transform="matrix(1.00 0.00 0.00 1.00 244.00 4.00 ) " id="51" />
    <path d="M 19.044 9.4746 26.3067 15.0582 19.044 20.6101 19.05279 18.3241 23.34899 15.0261 19.04409 11.7416 z " style="stroke:none;fill-rule:evenodd;opacity:1;fill:rgb(255,255,255);" transform="matrix(1.00 0.00 0.00 1.00 244.00 4.00 ) " id="52" />
    <text id="53" transform="matrix(1.00 0.00 0.00 1.00 0.00 0.00 ) " x="244.00px" y="39.00px" style="stroke:none;clip-path:url(#55_text_clipper);font-family:Microsoft Sans Serif;font-size:8.25pt;opacity:1;">
      <tspan dy="8.25pt" id="57">Create</tspan>
    </text>
    <text id="59" transform="matrix(1.00 0.00 0.00 1.00 0.00 0.00 ) " x="244.00px" y="51.45px" style="stroke:none;clip-path:url(#61_text_clipper);font-family:Microsoft Sans Serif;font-size:8.25pt;opacity:1;">
      <tspan dy="8.25pt" id="63">Runtime</tspan>
    </text>
    <ellipse id="67" cy="15.00" cx="15.00" transform="matrix(1.00 0.00 0.00 1.00 244.00 84.00 ) " rx="15.00" ry="15.00" style="stroke:none;opacity:1;fill:rgb(238,192,75);" />
    <path d="M 1.5363 7.8 C 1.99103 6.9385 2.52798 6.1205 3.1403 5.3587 3.7527 4.5967 4.4403 3.8909 5.1968 3.254 5.95315 2.617 6.7782 2.049 7.665299 1.5627 M 0.4537992 19.4997 C 0.1435492 18.4956 -0.05714077 17.4835 -0.1564507 16.4769 -0.2551987 15.4701 -0.2516447 14.4684 -0.1525816 13.4844 -0.05334165 12.5007 0.1414284 11.5347 0.4251484 10.5993 M 7.892348 28.3993 C 7.030958 27.9447 6.212848 27.4077 5.450948 26.7954 4.689008 26.1831 3.983248 25.4954 3.346348 24.739 2.709558 23.9826 2.141548 23.1575 1.655148 22.2704 M 19.49415 29.4993 C 18.48995 29.8096 17.47785 30.0103 16.47125 30.1096 15.46445 30.2084 14.46285 30.2049 13.47895 30.1018 12.49507 30.0028 11.52915 29.8079 10.59365 29.5242 M 28.46365 22.0993 C 28.00892 22.9606 27.472 23.7788 26.85965 24.5407 26.24738 25.3026 25.55945 26.0084 24.80315 26.6453 24.0468 27.2822 23.22175 27.8502 22.33465 28.3365 M 29.54565 10.4995 C 29.85594 11.5037 30.05659 12.5157 30.15594 13.5224 30.25481 14.5292 30.25114 15.531 30.15199 16.5147 30.05279 17.4986 29.85802 18.4646 29.5743 19.4 M 22.10769 1.499998 C 22.96908 1.954698 23.7872 2.491698 24.5491 3.103898 25.31104 3.716298 26.0168 4.404098 26.65369 5.160398 27.29052 5.916898 27.85859 6.741898 28.34499 7.629098 M 10.50499 0.3999977 C 11.50919 0.08969772 12.52109 -0.1109023 13.52779 -0.2103023 14.53469 -0.3090023 15.53619 -0.3055023 16.52009 -0.2103023 17.50401 -0.1111023 18.46999 0.08369771 19.40549 0.3673977 " style="stroke:rgb(169,169,169);fill:none;stroke-linecap:butt;stroke-miterlimit:9;opacity:1;stroke-width:2;stroke-linejoin:miter;" transform="matrix(1.00 0.00 0.00 1.00 244.00 84.00 ) " id="70" />
    <path d="M 17.669 23.046 14.5278 14.3891 23.4704 16.8312 " style="stroke:rgb(255,255,255);fill:none;stroke-linecap:butt;stroke-miterlimit:9;opacity:1;stroke-width:1.2;stroke-linejoin:miter;" transform="matrix(1.00 0.00 0.00 1.00 244.00 84.00 ) " id="81" />
    <path d="M 8.3192 8.979 14.5273 14.4561 19.1351 6.9535 8.319099 8.979 6.529999 17.9717 14.5272 14.4561 " style="stroke:rgb(255,255,255);fill:none;stroke-linecap:butt;stroke-miterlimit:9;opacity:1;stroke-width:1.2;stroke-linejoin:miter;" transform="matrix(1.00 0.00 0.00 1.00 244.00 84.00 ) " id="82" />
    <ellipse id="83" cy="6.95" cx="19.14" transform="matrix(1.00 0.00 0.00 1.00 244.00 84.00 ) " rx="2.40" ry="2.40" style="stroke:none;opacity:1;fill:rgb(255,255,255);" />
    <ellipse id="84" cy="16.59" cx="22.75" transform="matrix(1.00 0.00 0.00 1.00 244.00 84.00 ) " rx="2.40" ry="2.40" style="stroke:none;opacity:1;fill:rgb(255,255,255);" />
    <ellipse id="85" cy="23.05" cx="17.67" transform="matrix(1.00 0.00 0.00 1.00 244.00 84.00 ) " rx="2.40" ry="2.40" style="stroke:none;opacity:1;fill:rgb(255,255,255);" />
    <ellipse id="86" cy="17.97" cx="6.53" transform="matrix(1.00 0.00 0.00 1.00 244.00 84.00 ) " rx="2.40" ry="2.40" style="stroke:none;opacity:1;fill:rgb(255,255,255);" />
    <ellipse id="87" cy="8.98" cx="8.32" transform="matrix(1.00 0.00 0.00 1.00 244.00 84.00 ) " rx="2.40" ry="2.40" style="stroke:none;opacity:1;fill:rgb(255,255,255);" />
    <ellipse id="88" cy="14.46" cx="14.53" transform="matrix(1.00 0.00 0.00 1.00 244.00 84.00 ) " rx="2.40" ry="2.40" style="stroke:none;opacity:1;fill:rgb(255,255,255);" />
    <text id="89" transform="matrix(1.00 0.00 0.00 1.00 0.00 0.00 ) " x="244.00px" y="119.00px" style="stroke:none;clip-path:url(#91_text_clipper);font-family:Microsoft Sans Serif;font-size:8.25pt;opacity:1;">
      <tspan dy="8.25pt" id="93">LoadLDS</tspan>
    </text>
    <text id="95" transform="matrix(1.00 0.00 0.00 1.00 0.00 0.00 ) " x="244.00px" y="131.45px" style="stroke:none;clip-path:url(#97_text_clipper);font-family:Microsoft Sans Serif;font-size:8.25pt;opacity:1;">
      <tspan dy="8.25pt" id="99">Module</tspan>
    </text>
    <path d="M 10.158 33.2 C 3.4054 31.7591 -1.861 26.4692 -3.271 19.71 " style="stroke:rgb(169,169,169);fill:none;stroke-linecap:butt;stroke-miterlimit:9;opacity:1;stroke-width:2;stroke-linejoin:miter;" transform="matrix(1.00 0.00 0.00 1.00 244.00 164.00 ) " id="104" />
    <ellipse id="105" cy="15.00" cx="15.00" transform="matrix(1.00 0.00 0.00 1.00 244.00 164.00 ) " rx="15.00" ry="15.00" style="stroke:none;opacity:1;fill:rgb(155,91,179);" />
    <path d="M 11.656 8.2 11.99975 8.7 16.31225 14.7937 11.65605 21.4187 11.28105 21.9187 14.74985 21.9187 14.8436 21.7624 17.9998 17.0124 18.46855 17.7 21.15605 21.7624 21.2498 21.9187 24.7498 21.9187 24.40605 21.4187 19.65605 14.6687 24.06225 8.699997 24.406 8.199997 20.9998 8.199997 20.90605 8.324997 18.68725 11.4187 C 18.46251 11.7285 18.22333 12.1062 17.9685 12.4812 17.77046 12.1547 17.58677 11.8424 17.31225 11.4187 L 15.28105 8.356197 15.1873 8.199997 11.6561 8.199997 z " style="stroke:none;fill-rule:evenodd;opacity:1;fill:rgb(255,255,255);" transform="matrix(1.00 0.00 0.00 1.00 244.00 164.00 ) " id="110" />
    <path transform="matrix(1.00 0.00 0.00 1.00 244.00 164.00 ) " id="111" style="stroke:rgb(255,255,255);fill:none;stroke-linecap:butt;stroke-miterlimit:9;opacity:1;stroke-width:1.293;stroke-linejoin:miter;" d="M 11.351 13.1 C 11.42444 15.0467 9.308 16.6165 7.4668 15.9895 5.5828 15.49973 4.6834 13.0225 5.8159 11.4387 6.34572 10.62381 7.2864 10.1022 8.257999 10.0842 " />
    <path style="stroke:none;fill-rule:evenodd;opacity:1;fill:rgb(255,255,255);" transform="matrix(1.00 0.00 0.00 1.00 244.00 164.00 ) " id="112" d="M 8.0275 12.161 8.0275 8.2818 11.387 10.2214 9.7072 11.19124 z " />
    <text id="113" transform="matrix(1.00 0.00 0.00 1.00 0.00 0.00 ) " x="244.00px" y="199.00px" style="stroke:none;clip-path:url(#115_text_clipper);font-family:Microsoft Sans Serif;font-size:8.25pt;opacity:1;">
      <tspan dy="8.25pt" id="117">Observation</tspan>
    </text>
    <path d="M 10.158 33.2 C 3.4054 31.7591 -1.861 26.4692 -3.271 19.71 " style="stroke:rgb(169,169,169);fill:none;stroke-linecap:butt;stroke-miterlimit:9;opacity:1;stroke-width:2;stroke-linejoin:miter;" transform="matrix(1.00 0.00 0.00 1.00 244.00 244.00 ) " id="119" />
    <ellipse id="120" cy="15.00" cx="15.00" transform="matrix(1.00 0.00 0.00 1.00 244.00 244.00 ) " rx="15.00" ry="15.00" style="stroke:none;opacity:1;fill:rgb(155,91,179);" />
    <path d="M 11.656 8.2 11.99975 8.7 16.31225 14.7937 11.65605 21.4187 11.28105 21.9187 14.74985 21.9187 14.8436 21.7624 17.9998 17.0124 18.46855 17.7 21.15605 21.7624 21.2498 21.9187 24.7498 21.9187 24.40605 21.4187 19.65605 14.6687 24.06225 8.699997 24.406 8.199997 20.9998 8.199997 20.90605 8.324997 18.68725 11.4187 C 18.46251 11.7285 18.22333 12.1062 17.9685 12.4812 17.77046 12.1547 17.58677 11.8424 17.31225 11.4187 L 15.28105 8.356197 15.1873 8.199997 11.6561 8.199997 z " style="stroke:none;fill-rule:evenodd;opacity:1;fill:rgb(255,255,255);" transform="matrix(1.00 0.00 0.00 1.00 244.00 244.00 ) " id="124" />
    <ellipse id="125" cy="12.78" cx="8.79" transform="matrix(1.00 0.00 0.00 1.00 244.00 244.00 ) " rx="3.00" ry="3.00" style="stroke:none;opacity:1;fill:rgb(255,255,255);" />
    <text id="126" transform="matrix(1.00 0.00 0.00 1.00 0.00 0.00 ) " x="244.00px" y="279.00px" style="stroke:none;clip-path:url(#128_text_clipper);font-family:Microsoft Sans Serif;font-size:8.25pt;opacity:1;">
      <tspan dy="8.25pt" id="130">Model</tspan>
    </text>
    <text id="132" transform="matrix(1.00 0.00 0.00 1.00 0.00 0.00 ) " x="244.00px" y="291.45px" style="stroke:none;clip-path:url(#134_text_clipper);font-family:Microsoft Sans Serif;font-size:8.25pt;opacity:1;">
      <tspan dy="8.25pt" id="136">Parameters</tspan>
    </text>
    <ellipse id="138" cy="15.00" cx="15.00" transform="matrix(1.00 0.00 0.00 1.00 244.00 324.00 ) " rx="15.00" ry="15.00" style="stroke:none;opacity:1;fill:rgb(238,192,75);" />
    <path d="M 1.5363 7.8 C 1.99103 6.9385 2.52798 6.1205 3.1403 5.3587 3.7527 4.5967 4.4403 3.8909 5.1968 3.254 5.95315 2.617 6.7782 2.049 7.665299 1.5627 M 0.4537992 19.4997 C 0.1435492 18.4956 -0.05714077 17.4835 -0.1564507 16.4769 -0.2551987 15.4701 -0.2516447 14.4684 -0.1525816 13.4844 -0.05334165 12.5007 0.1414284 11.5347 0.4251484 10.5993 M 7.892348 28.3993 C 7.030958 27.9447 6.212848 27.4077 5.450948 26.7954 4.689008 26.1831 3.983248 25.4954 3.346348 24.739 2.709558 23.9826 2.141548 23.1575 1.655148 22.2704 M 19.49415 29.4993 C 18.48995 29.8096 17.47785 30.0103 16.47125 30.1096 15.46445 30.2084 14.46285 30.2049 13.47895 30.1018 12.49507 30.0028 11.52915 29.8079 10.59365 29.5242 M 28.46365 22.0993 C 28.00892 22.9606 27.472 23.7788 26.85965 24.5407 26.24738 25.3026 25.55945 26.0084 24.80315 26.6453 24.0468 27.2822 23.22175 27.8502 22.33465 28.3365 M 29.54565 10.4995 C 29.85594 11.5037 30.05659 12.5157 30.15594 13.5224 30.25481 14.5292 30.25114 15.531 30.15199 16.5147 30.05279 17.4986 29.85802 18.4646 29.5743 19.4 M 22.10769 1.499998 C 22.96908 1.954698 23.7872 2.491698 24.5491 3.103898 25.31104 3.716298 26.0168 4.404098 26.65369 5.160398 27.29052 5.916898 27.85859 6.741898 28.34499 7.629098 M 10.50499 0.3999977 C 11.50919 0.08969772 12.52109 -0.1109023 13.52779 -0.2103023 14.53469 -0.3090023 15.53619 -0.3055023 16.52009 -0.2103023 17.50401 -0.1111023 18.46999 0.08369771 19.40549 0.3673977 " style="stroke:rgb(169,169,169);fill:none;stroke-linecap:butt;stroke-miterlimit:9;opacity:1;stroke-width:2;stroke-linejoin:miter;" transform="matrix(1.00 0.00 0.00 1.00 244.00 324.00 ) " id="139" />
    <ellipse id="145" cy="9.06" cx="15.01" transform="matrix(1.00 0.00 0.00 1.00 244.00 324.00 ) " rx="3.50" ry="3.50" style="stroke:none;opacity:1;fill:rgb(255,255,255);" />
    <ellipse id="146" cy="18.49" cx="9.12" transform="matrix(1.00 0.00 0.00 1.00 244.00 324.00 ) " rx="3.50" ry="3.50" style="stroke:none;opacity:1;fill:rgb(255,255,255);" />
    <ellipse id="147" cy="18.46" cx="20.88" transform="matrix(1.00 0.00 0.00 1.00 244.00 324.00 ) " rx="3.50" ry="3.50" style="stroke:none;opacity:1;fill:rgb(255,255,255);" />
    <text id="148" transform="matrix(1.00 0.00 0.00 1.00 0.00 0.00 ) " x="244.00px" y="359.00px" style="stroke:none;clip-path:url(#150_text_clipper);font-family:Microsoft Sans Serif;font-size:8.25pt;opacity:1;">
      <tspan dy="8.25pt" id="152">Receptive</tspan>
    </text>
    <text id="154" transform="matrix(1.00 0.00 0.00 1.00 0.00 0.00 ) " x="244.00px" y="371.45px" style="stroke:none;clip-path:url(#156_text_clipper);font-family:Microsoft Sans Serif;font-size:8.25pt;opacity:1;">
      <tspan dy="8.25pt" id="158">FieldSimple</tspan>
    </text>
    <text id="160" transform="matrix(1.00 0.00 0.00 1.00 0.00 0.00 ) " x="244.00px" y="383.90px" style="stroke:none;clip-path:url(#162_text_clipper);font-family:Microsoft Sans Serif;font-size:8.25pt;opacity:1;">
      <tspan dy="8.25pt" id="164">Cell</tspan>
    </text>
    <path d="M 31.179 5.2 C 34.9985 11.0918 34.9814 18.682 31.13552 24.557 " style="stroke:rgb(169,169,169);fill:none;stroke-linecap:butt;stroke-miterlimit:9;opacity:1;stroke-width:2;stroke-linejoin:miter;" transform="matrix(1.00 0.00 0.00 1.00 164.00 84.00 ) " id="166" />
    <ellipse id="167" cy="15.00" cx="15.00" transform="matrix(1.00 0.00 0.00 1.00 164.00 84.00 ) " rx="15.00" ry="15.00" style="stroke:none;opacity:1;fill:rgb(91,178,126);" />
    <path d="M 10.824 9.4752 3.5613 15.0588 10.824 20.6107 10.81521 18.3247 6.519011 15.0267 10.82391 11.7422 z " style="stroke:none;fill-rule:evenodd;opacity:1;fill:rgb(255,255,255);" transform="matrix(1.00 0.00 0.00 1.00 164.00 84.00 ) " id="168" />
    <path d="M 15.365 7.2336 C 15.34647 7.33547 15.32125 7.4371 15.31422 7.5375 14.41077 12.6441 13.49692 17.7495 12.59942 22.8575 12.59508 22.88635 12.6018 22.91223 12.59942 22.94062 L 14.62872 22.94062 C 14.70348 22.53324 14.73679 22.1026 14.8377 21.71462 15.68204 16.94102 16.5365 12.17012 17.3748 7.394619 17.38163 7.340435 17.37866 7.287239 17.3787 7.233579 z " style="stroke:none;fill-rule:evenodd;opacity:1;fill:rgb(255,255,255);" transform="matrix(1.00 0.00 0.00 1.00 164.00 84.00 ) " id="169" />
    <path d="M 19.044 9.4746 26.3067 15.0582 19.044 20.6101 19.05279 18.3241 23.34899 15.0261 19.04409 11.7416 z " style="stroke:none;fill-rule:evenodd;opacity:1;fill:rgb(255,255,255);" transform="matrix(1.00 0.00 0.00 1.00 164.00 84.00 ) " id="170" />
    <text id="171" transform="matrix(1.00 0.00 0.00 1.00 0.00 0.00 ) " x="164.00px" y="119.00px" style="stroke:none;clip-path:url(#173_text_clipper);font-family:Microsoft Sans Serif;font-size:8.25pt;opacity:1;">
      <tspan dy="8.25pt" id="175">GetRuntime</tspan>
    </text>
    <ellipse id="177" cy="15.00" cx="15.00" transform="matrix(1.00 0.00 0.00 1.00 164.00 164.00 ) " rx="15.00" ry="15.00" style="stroke:none;opacity:1;fill:rgb(238,192,75);" />
    <path d="M 1.5363 7.8 C 1.99103 6.9385 2.52798 6.1205 3.1403 5.3587 3.7527 4.5967 4.4403 3.8909 5.1968 3.254 5.95315 2.617 6.7782 2.049 7.665299 1.5627 M 0.4537992 19.4997 C 0.1435492 18.4956 -0.05714077 17.4835 -0.1564507 16.4769 -0.2551987 15.4701 -0.2516447 14.4684 -0.1525816 13.4844 -0.05334165 12.5007 0.1414284 11.5347 0.4251484 10.5993 M 7.892348 28.3993 C 7.030958 27.9447 6.212848 27.4077 5.450948 26.7954 4.689008 26.1831 3.983248 25.4954 3.346348 24.739 2.709558 23.9826 2.141548 23.1575 1.655148 22.2704 M 19.49415 29.4993 C 18.48995 29.8096 17.47785 30.0103 16.47125 30.1096 15.46445 30.2084 14.46285 30.2049 13.47895 30.1018 12.49507 30.0028 11.52915 29.8079 10.59365 29.5242 M 28.46365 22.0993 C 28.00892 22.9606 27.472 23.7788 26.85965 24.5407 26.24738 25.3026 25.55945 26.0084 24.80315 26.6453 24.0468 27.2822 23.22175 27.8502 22.33465 28.3365 M 29.54565 10.4995 C 29.85594 11.5037 30.05659 12.5157 30.15594 13.5224 30.25481 14.5292 30.25114 15.531 30.15199 16.5147 30.05279 17.4986 29.85802 18.4646 29.5743 19.4 M 22.10769 1.499998 C 22.96908 1.954698 23.7872 2.491698 24.5491 3.103898 25.31104 3.716298 26.0168 4.404098 26.65369 5.160398 27.29052 5.916898 27.85859 6.741898 28.34499 7.629098 M 10.50499 0.3999977 C 11.50919 0.08969772 12.52109 -0.1109023 13.52779 -0.2103023 14.53469 -0.3090023 15.53619 -0.3055023 16.52009 -0.2103023 17.50401 -0.1111023 18.46999 0.08369771 19.40549 0.3673977 " style="stroke:rgb(169,169,169);fill:none;stroke-linecap:butt;stroke-miterlimit:9;opacity:1;stroke-width:2;stroke-linejoin:miter;" transform="matrix(1.00 0.00 0.00 1.00 164.00 164.00 ) " id="178" />
    <ellipse id="179" cy="9.06" cx="15.01" transform="matrix(1.00 0.00 0.00 1.00 164.00 164.00 ) " rx="3.50" ry="3.50" style="stroke:none;opacity:1;fill:rgb(255,255,255);" />
    <ellipse id="180" cy="18.49" cx="9.12" transform="matrix(1.00 0.00 0.00 1.00 164.00 164.00 ) " rx="3.50" ry="3.50" style="stroke:none;opacity:1;fill:rgb(255,255,255);" />
    <ellipse id="181" cy="18.46" cx="20.88" transform="matrix(1.00 0.00 0.00 1.00 164.00 164.00 ) " rx="3.50" ry="3.50" style="stroke:none;opacity:1;fill:rgb(255,255,255);" />
    <text id="182" transform="matrix(1.00 0.00 0.00 1.00 0.00 0.00 ) " x="164.00px" y="199.00px" style="stroke:none;clip-path:url(#184_text_clipper);font-family:Microsoft Sans Serif;font-size:8.25pt;opacity:1;">
      <tspan dy="8.25pt" id="186">LoadData</tspan>
    </text>
    <ellipse id="188" cy="15.00" cx="15.00" transform="matrix(1.00 0.00 0.00 1.00 164.00 244.00 ) " rx="15.00" ry="15.00" style="stroke:none;opacity:1;fill:rgb(238,192,75);" />
    <path d="M 1.5363 7.8 C 1.99103 6.9385 2.52798 6.1205 3.1403 5.3587 3.7527 4.5967 4.4403 3.8909 5.1968 3.254 5.95315 2.617 6.7782 2.049 7.665299 1.5627 M 0.4537992 19.4997 C 0.1435492 18.4956 -0.05714077 17.4835 -0.1564507 16.4769 -0.2551987 15.4701 -0.2516447 14.4684 -0.1525816 13.4844 -0.05334165 12.5007 0.1414284 11.5347 0.4251484 10.5993 M 7.892348 28.3993 C 7.030958 27.9447 6.212848 27.4077 5.450948 26.7954 4.689008 26.1831 3.983248 25.4954 3.346348 24.739 2.709558 23.9826 2.141548 23.1575 1.655148 22.2704 M 19.49415 29.4993 C 18.48995 29.8096 17.47785 30.0103 16.47125 30.1096 15.46445 30.2084 14.46285 30.2049 13.47895 30.1018 12.49507 30.0028 11.52915 29.8079 10.59365 29.5242 M 28.46365 22.0993 C 28.00892 22.9606 27.472 23.7788 26.85965 24.5407 26.24738 25.3026 25.55945 26.0084 24.80315 26.6453 24.0468 27.2822 23.22175 27.8502 22.33465 28.3365 M 29.54565 10.4995 C 29.85594 11.5037 30.05659 12.5157 30.15594 13.5224 30.25481 14.5292 30.25114 15.531 30.15199 16.5147 30.05279 17.4986 29.85802 18.4646 29.5743 19.4 M 22.10769 1.499998 C 22.96908 1.954698 23.7872 2.491698 24.5491 3.103898 25.31104 3.716298 26.0168 4.404098 26.65369 5.160398 27.29052 5.916898 27.85859 6.741898 28.34499 7.629098 M 10.50499 0.3999977 C 11.50919 0.08969772 12.52109 -0.1109023 13.52779 -0.2103023 14.53469 -0.3090023 15.53619 -0.3055023 16.52009 -0.2103023 17.50401 -0.1111023 18.46999 0.08369771 19.40549 0.3673977 " style="stroke:rgb(169,169,169);fill:none;stroke-linecap:butt;stroke-miterlimit:9;opacity:1;stroke-width:2;stroke-linejoin:miter;" transform="matrix(1.00 0.00 0.00 1.00 164.00 244.00 ) " id="189" />
    <path d="M 17.669 23.046 14.5278 14.3891 23.4704 16.8312 " style="stroke:rgb(255,255,255);fill:none;stroke-linecap:butt;stroke-miterlimit:9;opacity:1;stroke-width:1.2;stroke-linejoin:miter;" transform="matrix(1.00 0.00 0.00 1.00 164.00 244.00 ) " id="190" />
    <path d="M 8.3192 8.979 14.5273 14.4561 19.1351 6.9535 8.319099 8.979 6.529999 17.9717 14.5272 14.4561 " style="stroke:rgb(255,255,255);fill:none;stroke-linecap:butt;stroke-miterlimit:9;opacity:1;stroke-width:1.2;stroke-linejoin:miter;" transform="matrix(1.00 0.00 0.00 1.00 164.00 244.00 ) " id="191" />
    <ellipse id="192" cy="6.95" cx="19.14" transform="matrix(1.00 0.00 0.00 1.00 164.00 244.00 ) " rx="2.40" ry="2.40" style="stroke:none;opacity:1;fill:rgb(255,255,255);" />
    <ellipse id="193" cy="16.59" cx="22.75" transform="matrix(1.00 0.00 0.00 1.00 164.00 244.00 ) " rx="2.40" ry="2.40" style="stroke:none;opacity:1;fill:rgb(255,255,255);" />
    <ellipse id="194" cy="23.05" cx="17.67" transform="matrix(1.00 0.00 0.00 1.00 164.00 244.00 ) " rx="2.40" ry="2.40" style="stroke:none;opacity:1;fill:rgb(255,255,255);" />
    <ellipse id="195" cy="17.97" cx="6.53" transform="matrix(1.00 0.00 0.00 1.00 164.00 244.00 ) " rx="2.40" ry="2.40" style="stroke:none;opacity:1;fill:rgb(255,255,255);" />
    <ellipse id="196" cy="8.98" cx="8.32" transform="matrix(1.00 0.00 0.00 1.00 164.00 244.00 ) " rx="2.40" ry="2.40" style="stroke:none;opacity:1;fill:rgb(255,255,255);" />
    <ellipse id="197" cy="14.46" cx="14.53" transform="matrix(1.00 0.00 0.00 1.00 164.00 244.00 ) " rx="2.40" ry="2.40" style="stroke:none;opacity:1;fill:rgb(255,255,255);" />
    <text id="198" transform="matrix(1.00 0.00 0.00 1.00 0.00 0.00 ) " x="164.00px" y="279.00px" style="stroke:none;clip-path:url(#200_text_clipper);font-family:Microsoft Sans Serif;font-size:8.25pt;opacity:1;">
      <tspan dy="8.25pt" id="202">CreateKF</tspan>
    </text>
    <text id="204" transform="matrix(1.00 0.00 0.00 1.00 0.00 0.00 ) " x="164.00px" y="291.45px" style="stroke:none;clip-path:url(#206_text_clipper);font-family:Microsoft Sans Serif;font-size:8.25pt;opacity:1;">
      <tspan dy="8.25pt" id="208">Model</tspan>
    </text>
    <ellipse id="210" cy="15.00" cx="15.00" transform="matrix(1.00 0.00 0.00 1.00 164.00 324.00 ) " rx="15.00" ry="15.00" style="stroke:none;opacity:1;fill:rgb(238,192,75);" />
    <path d="M 1.5363 7.8 C 1.99103 6.9385 2.52798 6.1205 3.1403 5.3587 3.7527 4.5967 4.4403 3.8909 5.1968 3.254 5.95315 2.617 6.7782 2.049 7.665299 1.5627 M 0.4537992 19.4997 C 0.1435492 18.4956 -0.05714077 17.4835 -0.1564507 16.4769 -0.2551987 15.4701 -0.2516447 14.4684 -0.1525816 13.4844 -0.05334165 12.5007 0.1414284 11.5347 0.4251484 10.5993 M 7.892348 28.3993 C 7.030958 27.9447 6.212848 27.4077 5.450948 26.7954 4.689008 26.1831 3.983248 25.4954 3.346348 24.739 2.709558 23.9826 2.141548 23.1575 1.655148 22.2704 M 19.49415 29.4993 C 18.48995 29.8096 17.47785 30.0103 16.47125 30.1096 15.46445 30.2084 14.46285 30.2049 13.47895 30.1018 12.49507 30.0028 11.52915 29.8079 10.59365 29.5242 M 28.46365 22.0993 C 28.00892 22.9606 27.472 23.7788 26.85965 24.5407 26.24738 25.3026 25.55945 26.0084 24.80315 26.6453 24.0468 27.2822 23.22175 27.8502 22.33465 28.3365 M 29.54565 10.4995 C 29.85594 11.5037 30.05659 12.5157 30.15594 13.5224 30.25481 14.5292 30.25114 15.531 30.15199 16.5147 30.05279 17.4986 29.85802 18.4646 29.5743 19.4 M 22.10769 1.499998 C 22.96908 1.954698 23.7872 2.491698 24.5491 3.103898 25.31104 3.716298 26.0168 4.404098 26.65369 5.160398 27.29052 5.916898 27.85859 6.741898 28.34499 7.629098 M 10.50499 0.3999977 C 11.50919 0.08969772 12.52109 -0.1109023 13.52779 -0.2103023 14.53469 -0.3090023 15.53619 -0.3055023 16.52009 -0.2103023 17.50401 -0.1111023 18.46999 0.08369771 19.40549 0.3673977 " style="stroke:rgb(169,169,169);fill:none;stroke-linecap:butt;stroke-miterlimit:9;opacity:1;stroke-width:2;stroke-linejoin:miter;" transform="matrix(1.00 0.00 0.00 1.00 164.00 324.00 ) " id="211" />
    <path d="M 17.669 23.046 14.5278 14.3891 23.4704 16.8312 " style="stroke:rgb(255,255,255);fill:none;stroke-linecap:butt;stroke-miterlimit:9;opacity:1;stroke-width:1.2;stroke-linejoin:miter;" transform="matrix(1.00 0.00 0.00 1.00 164.00 324.00 ) " id="212" />
    <path d="M 8.3192 8.979 14.5273 14.4561 19.1351 6.9535 8.319099 8.979 6.529999 17.9717 14.5272 14.4561 " style="stroke:rgb(255,255,255);fill:none;stroke-linecap:butt;stroke-miterlimit:9;opacity:1;stroke-width:1.2;stroke-linejoin:miter;" transform="matrix(1.00 0.00 0.00 1.00 164.00 324.00 ) " id="213" />
    <ellipse id="214" cy="6.95" cx="19.14" transform="matrix(1.00 0.00 0.00 1.00 164.00 324.00 ) " rx="2.40" ry="2.40" style="stroke:none;opacity:1;fill:rgb(255,255,255);" />
    <ellipse id="215" cy="16.59" cx="22.75" transform="matrix(1.00 0.00 0.00 1.00 164.00 324.00 ) " rx="2.40" ry="2.40" style="stroke:none;opacity:1;fill:rgb(255,255,255);" />
    <ellipse id="216" cy="23.05" cx="17.67" transform="matrix(1.00 0.00 0.00 1.00 164.00 324.00 ) " rx="2.40" ry="2.40" style="stroke:none;opacity:1;fill:rgb(255,255,255);" />
    <ellipse id="217" cy="17.97" cx="6.53" transform="matrix(1.00 0.00 0.00 1.00 164.00 324.00 ) " rx="2.40" ry="2.40" style="stroke:none;opacity:1;fill:rgb(255,255,255);" />
    <ellipse id="218" cy="8.98" cx="8.32" transform="matrix(1.00 0.00 0.00 1.00 164.00 324.00 ) " rx="2.40" ry="2.40" style="stroke:none;opacity:1;fill:rgb(255,255,255);" />
    <ellipse id="219" cy="14.46" cx="14.53" transform="matrix(1.00 0.00 0.00 1.00 164.00 324.00 ) " rx="2.40" ry="2.40" style="stroke:none;opacity:1;fill:rgb(255,255,255);" />
    <text id="220" transform="matrix(1.00 0.00 0.00 1.00 0.00 0.00 ) " x="164.00px" y="359.00px" style="stroke:none;clip-path:url(#222_text_clipper);font-family:Microsoft Sans Serif;font-size:8.25pt;opacity:1;">
      <tspan dy="8.25pt" id="224">Perform</tspan>
    </text>
    <text id="226" transform="matrix(1.00 0.00 0.00 1.00 0.00 0.00 ) " x="164.00px" y="371.45px" style="stroke:none;clip-path:url(#228_text_clipper);font-family:Microsoft Sans Serif;font-size:8.25pt;opacity:1;">
      <tspan dy="8.25pt" id="230">Inference</tspan>
    </text>
    <path d="M 31.179 5.2 C 34.9985 11.0918 34.9814 18.682 31.13552 24.557 " style="stroke:rgb(169,169,169);fill:none;stroke-linecap:butt;stroke-miterlimit:9;opacity:1;stroke-width:2;stroke-linejoin:miter;" transform="matrix(1.00 0.00 0.00 1.00 84.00 244.00 ) " id="232" />
    <ellipse id="233" cy="15.00" cx="15.00" transform="matrix(1.00 0.00 0.00 1.00 84.00 244.00 ) " rx="15.00" ry="15.00" style="stroke:none;opacity:1;fill:rgb(91,178,126);" />
    <path d="M 10.824 9.4752 3.5613 15.0588 10.824 20.6107 10.81521 18.3247 6.519011 15.0267 10.82391 11.7422 z " style="stroke:none;fill-rule:evenodd;opacity:1;fill:rgb(255,255,255);" transform="matrix(1.00 0.00 0.00 1.00 84.00 244.00 ) " id="234" />
    <path d="M 15.365 7.2336 C 15.34647 7.33547 15.32125 7.4371 15.31422 7.5375 14.41077 12.6441 13.49692 17.7495 12.59942 22.8575 12.59508 22.88635 12.6018 22.91223 12.59942 22.94062 L 14.62872 22.94062 C 14.70348 22.53324 14.73679 22.1026 14.8377 21.71462 15.68204 16.94102 16.5365 12.17012 17.3748 7.394619 17.38163 7.340435 17.37866 7.287239 17.3787 7.233579 z " style="stroke:none;fill-rule:evenodd;opacity:1;fill:rgb(255,255,255);" transform="matrix(1.00 0.00 0.00 1.00 84.00 244.00 ) " id="235" />
    <path d="M 19.044 9.4746 26.3067 15.0582 19.044 20.6101 19.05279 18.3241 23.34899 15.0261 19.04409 11.7416 z " style="stroke:none;fill-rule:evenodd;opacity:1;fill:rgb(255,255,255);" transform="matrix(1.00 0.00 0.00 1.00 84.00 244.00 ) " id="236" />
    <text id="237" transform="matrix(1.00 0.00 0.00 1.00 0.00 0.00 ) " x="84.00px" y="279.00px" style="stroke:none;clip-path:url(#239_text_clipper);font-family:Microsoft Sans Serif;font-size:8.25pt;opacity:1;">
      <tspan dy="8.25pt" id="241">GetRuntime</tspan>
    </text>
    <ellipse id="243" cy="15.00" cx="15.00" transform="matrix(1.00 0.00 0.00 1.00 84.00 324.00 ) " rx="15.00" ry="15.00" style="stroke:none;opacity:1;fill:rgb(238,192,75);" />
    <path style="stroke:none;fill-rule:evenodd;opacity:1;fill:rgb(255,255,255);" transform="matrix(1.00 0.00 0.00 1.00 84.00 324.00 ) " id="246" d="M 12.246 6.0137 12.246 6.019559 C 12.05806 6.020259 11.89471 6.040434 11.76748 6.066434 10.86869 6.352735 10.89631 6.934374 9.87688 7.685534 8.863379 8.264335 8.35338 7.819914 7.61518 8.419914 6.87845 9.015514 7.39292 10.38251 7.08393 10.64841 6.77722 11.18001 5.82553 11.65471 5.65233 12.32611 5.50916 13.18481 6.04191 13.79701 6.02147 14.53311 6.08287 15.14641 5.41127 15.49489 5.5078 15.99211 5.79702 16.80421 6.35438 17.29221 6.6172 17.51751 6.663351 17.54951 6.700028 17.5985 6.714856 17.6015 6.790713 17.792 6.858586 17.98645 6.955086 18.16595 6.949606 18.13995 6.948576 18.11382 6.943367 18.08782 6.998228 18.30542 7.055077 18.52401 7.132816 18.73821 8.683116 22.09901 12.81412 24.68611 17.34182 24.11711 19.54102 23.84771 22.82442 22.33171 24.16602 18.73821 23.22044 19.58671 21.53152 20.32421 20.77732 20.38081 23.33002 19.10511 24.70712 16.93741 24.32031 13.97461 23.79154 15.23341 23.09341 16.20131 22.22071 16.86521 24.07451 13.97551 23.75691 12.48131 22.38478 10.83981 23.36615 13.53881 22.09719 16.53431 19.33208 18.66401 20.45238 18.78541 21.51657 18.51614 22.50198 17.71284 21.01318 19.37354 19.14968 20.20834 17.01368 20.43554 18.03358 21.30254 19.01818 21.69454 19.95898 21.52734 17.34458 22.24884 15.15478 21.45428 12.49018 18.80074 12.3507 19.51504 13.10514 20.62754 13.88278 21.33784 9.373278 19.38284 8.976177 13.29584 14.46872 11.79294 14.47202 11.79294 14.47518 11.79384 14.47848 11.79294 17.74978 13.70674 21.86528 13.58084 22.05078 12.34372 22.50885 10.86082 19.96508 7.805223 16.16208 7.007823 15.4618 6.871123 14.79228 6.817344 14.15428 6.835943 14.16706 6.835943 14.17858 6.836182 14.19139 6.826178 13.58399 6.177278 12.80989 6.011678 12.24609 6.013678 z M 17.17769 9.046878 C 17.72373 9.046878 18.22259 9.543848 18.22259 10.08988 18.22259 10.63598 17.72371 11.13288 17.17769 11.13288 16.63165 11.13288 16.13469 10.63601 16.13469 10.08988 16.13474 9.543879 16.63162 9.046778 17.17769 9.046878 z " />
    <text id="247" transform="matrix(1.00 0.00 0.00 1.00 0.00 0.00 ) " x="84.00px" y="359.00px" style="stroke:none;clip-path:url(#249_text_clipper);font-family:Microsoft Sans Serif;font-size:8.25pt;opacity:1;">
      <tspan dy="8.25pt" id="251">Subscribe</tspan>
    </text>
    <text id="253" transform="matrix(1.00 0.00 0.00 1.00 0.00 0.00 ) " x="84.00px" y="371.45px" style="stroke:none;clip-path:url(#255_text_clipper);font-family:Microsoft Sans Serif;font-size:8.25pt;opacity:1;">
      <tspan dy="8.25pt" id="257">When</tspan>
    </text>
    <path d="M 31.179 5.2 C 34.9985 11.0918 34.9814 18.682 31.13552 24.557 " style="stroke:rgb(169,169,169);fill:none;stroke-linecap:butt;stroke-miterlimit:9;opacity:1;stroke-width:2;stroke-linejoin:miter;" transform="matrix(1.00 0.00 0.00 1.00 4.00 324.00 ) " id="259" />
    <ellipse id="260" cy="15.00" cx="15.00" transform="matrix(1.00 0.00 0.00 1.00 4.00 324.00 ) " rx="15.00" ry="15.00" style="stroke:none;opacity:1;fill:rgb(91,178,126);" />
    <path d="M 4.4028 13 4.93347 11.3266 C 6.15637 11.7667 7.04467 12.1477 7.598371 12.4698 7.45224 11.0476 7.37533 10.0696 7.36764 9.5352 L 9.040441 9.5352 C 9.017365 10.3131 8.92891 11.2873 8.775101 12.4581 9.567261 12.0495 10.4748 11.6723 11.4977 11.3266 L 12.02837 13 C 11.05162 13.3302 10.09407 13.5502 9.155771 13.6601 9.624911 14.0766 10.28637 14.819 11.14007 15.8877 L 9.755671 16.8894 C 9.30959 16.2687 8.782761 15.4241 8.175171 14.3554 7.606041 15.4633 7.106171 16.308 6.675471 16.8894 L 5.314171 15.8877 C 6.206311 14.7642 6.844671 14.0216 7.229171 13.6601 6.237041 13.4637 5.294871 13.2437 4.402771 13 z " style="stroke:none;fill-rule:evenodd;opacity:1;fill:rgb(255,255,255);" transform="matrix(1.00 0.00 0.00 1.00 4.00 324.00 ) " id="264" />
    <path d="M 11.656 8.2 11.99975 8.7 16.31225 14.7937 11.65605 21.4187 11.28105 21.9187 14.74985 21.9187 14.8436 21.7624 17.9998 17.0124 18.46855 17.7 21.15605 21.7624 21.2498 21.9187 24.7498 21.9187 24.40605 21.4187 19.65605 14.6687 24.06225 8.699997 24.406 8.199997 20.9998 8.199997 20.90605 8.324997 18.68725 11.4187 C 18.46251 11.7285 18.22333 12.1062 17.9685 12.4812 17.77046 12.1547 17.58677 11.8424 17.31225 11.4187 L 15.28105 8.356197 15.1873 8.199997 11.6561 8.199997 z " style="stroke:none;fill-rule:evenodd;opacity:1;fill:rgb(255,255,255);" transform="matrix(1.00 0.00 0.00 1.00 4.00 324.00 ) " id="265" />
    <text id="266" transform="matrix(1.00 0.00 0.00 1.00 0.00 0.00 ) " x="4.00px" y="359.00px" style="stroke:none;clip-path:url(#268_text_clipper);font-family:Microsoft Sans Serif;font-size:8.25pt;opacity:1;">
      <tspan dy="8.25pt" id="270">Observation</tspan>
    </text>
    <path d="M 31.179 5.2 C 34.9985 11.0918 34.9814 18.682 31.13552 24.557 " style="stroke:rgb(169,169,169);fill:none;stroke-linecap:butt;stroke-miterlimit:9;opacity:1;stroke-width:2;stroke-linejoin:miter;" transform="matrix(1.00 0.00 0.00 1.00 4.00 404.00 ) " id="272" />
    <ellipse id="273" cy="15.00" cx="15.00" transform="matrix(1.00 0.00 0.00 1.00 4.00 404.00 ) " rx="15.00" ry="15.00" style="stroke:none;opacity:1;fill:rgb(91,178,126);" />
    <path d="M 4.4028 13 4.93347 11.3266 C 6.15637 11.7667 7.04467 12.1477 7.598371 12.4698 7.45224 11.0476 7.37533 10.0696 7.36764 9.5352 L 9.040441 9.5352 C 9.017365 10.3131 8.92891 11.2873 8.775101 12.4581 9.567261 12.0495 10.4748 11.6723 11.4977 11.3266 L 12.02837 13 C 11.05162 13.3302 10.09407 13.5502 9.155771 13.6601 9.624911 14.0766 10.28637 14.819 11.14007 15.8877 L 9.755671 16.8894 C 9.30959 16.2687 8.782761 15.4241 8.175171 14.3554 7.606041 15.4633 7.106171 16.308 6.675471 16.8894 L 5.314171 15.8877 C 6.206311 14.7642 6.844671 14.0216 7.229171 13.6601 6.237041 13.4637 5.294871 13.2437 4.402771 13 z " style="stroke:none;fill-rule:evenodd;opacity:1;fill:rgb(255,255,255);" transform="matrix(1.00 0.00 0.00 1.00 4.00 404.00 ) " id="274" />
    <path d="M 11.656 8.2 11.99975 8.7 16.31225 14.7937 11.65605 21.4187 11.28105 21.9187 14.74985 21.9187 14.8436 21.7624 17.9998 17.0124 18.46855 17.7 21.15605 21.7624 21.2498 21.9187 24.7498 21.9187 24.40605 21.4187 19.65605 14.6687 24.06225 8.699997 24.406 8.199997 20.9998 8.199997 20.90605 8.324997 18.68725 11.4187 C 18.46251 11.7285 18.22333 12.1062 17.9685 12.4812 17.77046 12.1547 17.58677 11.8424 17.31225 11.4187 L 15.28105 8.356197 15.1873 8.199997 11.6561 8.199997 z " style="stroke:none;fill-rule:evenodd;opacity:1;fill:rgb(255,255,255);" transform="matrix(1.00 0.00 0.00 1.00 4.00 404.00 ) " id="275" />
    <text id="276" transform="matrix(1.00 0.00 0.00 1.00 0.00 0.00 ) " x="4.00px" y="439.00px" style="stroke:none;clip-path:url(#278_text_clipper);font-family:Microsoft Sans Serif;font-size:8.25pt;opacity:1;">
      <tspan dy="8.25pt" id="280">Model</tspan>
    </text>
    <text id="282" transform="matrix(1.00 0.00 0.00 1.00 0.00 0.00 ) " x="4.00px" y="451.45px" style="stroke:none;clip-path:url(#284_text_clipper);font-family:Microsoft Sans Serif;font-size:8.25pt;opacity:1;">
      <tspan dy="8.25pt" id="286">Parameters</tspan>
    </text>
  </g>
  <defs id="clips_hatches_and_gradients">
    <clipPath id="55_text_clipper">
      <rect x="244.00" y="39.00" width="45.92" height="27.65" id="56" />
    </clipPath>
    <clipPath id="61_text_clipper">
      <rect x="244.00" y="51.45" width="45.92" height="27.65" id="62" />
    </clipPath>
    <clipPath id="91_text_clipper">
      <rect x="244.00" y="119.00" width="50.91" height="27.65" id="92" />
    </clipPath>
    <clipPath id="97_text_clipper">
      <rect x="244.00" y="131.45" width="50.91" height="27.65" id="98" />
    </clipPath>
    <clipPath id="115_text_clipper">
      <rect x="244.00" y="199.00" width="64.82" height="13.83" id="116" />
    </clipPath>
    <clipPath id="128_text_clipper">
      <rect x="244.00" y="279.00" width="62.22" height="27.65" id="129" />
    </clipPath>
    <clipPath id="134_text_clipper">
      <rect x="244.00" y="291.45" width="62.22" height="27.65" id="135" />
    </clipPath>
    <clipPath id="150_text_clipper">
      <rect x="244.00" y="359.00" width="63.12" height="41.48" id="151" />
    </clipPath>
    <clipPath id="156_text_clipper">
      <rect x="244.00" y="371.45" width="63.12" height="41.48" id="157" />
    </clipPath>
    <clipPath id="162_text_clipper">
      <rect x="244.00" y="383.90" width="63.12" height="41.48" id="163" />
    </clipPath>
    <clipPath id="173_text_clipper">
      <rect x="164.00" y="119.00" width="64.18" height="13.83" id="174" />
    </clipPath>
    <clipPath id="184_text_clipper">
      <rect x="164.00" y="199.00" width="52.80" height="13.83" id="185" />
    </clipPath>
    <clipPath id="200_text_clipper">
      <rect x="164.00" y="279.00" width="52.15" height="27.65" id="201" />
    </clipPath>
    <clipPath id="206_text_clipper">
      <rect x="164.00" y="291.45" width="52.15" height="27.65" id="207" />
    </clipPath>
    <clipPath id="222_text_clipper">
      <rect x="164.00" y="359.00" width="50.90" height="27.65" id="223" />
    </clipPath>
    <clipPath id="228_text_clipper">
      <rect x="164.00" y="371.45" width="50.90" height="27.65" id="229" />
    </clipPath>
    <clipPath id="239_text_clipper">
      <rect x="84.00" y="279.00" width="64.18" height="13.83" id="240" />
    </clipPath>
    <clipPath id="249_text_clipper">
      <rect x="84.00" y="359.00" width="54.11" height="27.65" id="250" />
    </clipPath>
    <clipPath id="255_text_clipper">
      <rect x="84.00" y="371.45" width="54.11" height="27.65" id="256" />
    </clipPath>
    <clipPath id="268_text_clipper">
      <rect x="4.00" y="359.00" width="64.82" height="13.83" id="269" />
    </clipPath>
    <clipPath id="278_text_clipper">
      <rect x="4.00" y="439.00" width="62.22" height="27.65" id="279" />
    </clipPath>
    <clipPath id="284_text_clipper">
      <rect x="4.00" y="451.45" width="62.22" height="27.65" id="285" />
    </clipPath>
  </defs>
</svg>