<?xml version="1.0" encoding="UTF-8" standalone="no"?>
<svg
   width="482"
   height="612"
   id="SvgGdi_output"
   version="1.1"
   sodipodi:docname="KFModelImplementation.svg"
   inkscape:version="1.3.2 (1:1.3.2+202311252150+091e20ef0f)"
   xmlns:inkscape="http://www.inkscape.org/namespaces/inkscape"
   xmlns:sodipodi="http://sodipodi.sourceforge.net/DTD/sodipodi-0.dtd"
   xmlns="http://www.w3.org/2000/svg"
   xmlns:svg="http://www.w3.org/2000/svg">
  <sodipodi:namedview
     id="namedview1"
     pagecolor="#505050"
     bordercolor="#ffffff"
     borderopacity="1"
     inkscape:showpageshadow="0"
     inkscape:pageopacity="0"
     inkscape:pagecheckerboard="1"
     inkscape:deskcolor="#d1d1d1"
     inkscape:zoom="1.2990196"
     inkscape:cx="240.95094"
     inkscape:cy="306"
     inkscape:window-width="1920"
     inkscape:window-height="995"
     inkscape:window-x="0"
     inkscape:window-y="0"
     inkscape:window-maximized="1"
     inkscape:current-layer="SvgGdi_output" />
  <g
     id="root_group"
     style="shape-rendering:auto;">
    <line
       y2="38.00"
       y1="38.00"
       x1="236.00"
       id="69"
       x2="320.00"
       style="stroke-linecap:butt;fill:none;stroke-linejoin:miter;stroke-width:2;opacity:1;stroke:rgb(169,169,169);stroke-miterlimit:9;" />
    <line
       y2="198.00"
       y1="198.00"
       x1="236.00"
       id="70"
       x2="320.00"
       style="stroke-linecap:butt;fill:none;stroke-linejoin:miter;stroke-width:2;opacity:1;stroke:rgb(169,169,169);stroke-miterlimit:9;" />
    <line
       y2="358.00"
       y1="358.00"
       x1="236.00"
       id="71"
       x2="320.00"
       style="stroke-linecap:butt;fill:none;stroke-linejoin:miter;stroke-width:2;opacity:1;stroke:rgb(169,169,169);stroke-miterlimit:9;" />
    <line
       y2="518.00"
       y1="518.00"
       x1="236.00"
       id="72"
       x2="320.00"
       style="stroke-linecap:butt;fill:none;stroke-linejoin:miter;stroke-width:2;opacity:1;stroke:rgb(169,169,169);stroke-miterlimit:9;" />
    <line
       y2="198.00"
       y1="198.00"
       x1="76.00"
       id="73"
       x2="160.00"
       style="stroke-linecap:butt;fill:none;stroke-linejoin:miter;stroke-width:2;opacity:1;stroke:rgb(169,169,169);stroke-miterlimit:9;" />
    <line
       y2="358.00"
       y1="358.00"
       x1="76.00"
       id="74"
       x2="160.00"
       style="stroke-linecap:butt;fill:none;stroke-linejoin:miter;stroke-width:2;opacity:1;stroke:rgb(169,169,169);stroke-miterlimit:9;" />
    <line
       y2="518.00"
       y1="518.00"
       x1="76.00"
       id="75"
       x2="160.00"
       style="stroke-linecap:butt;fill:none;stroke-linejoin:miter;stroke-width:2;opacity:1;stroke:rgb(169,169,169);stroke-miterlimit:9;" />
    <path
       style="stroke-linecap:butt;fill:none;stroke-linejoin:miter;stroke-width:2;opacity:1;stroke:rgb(169,169,169);stroke-miterlimit:9;"
       d="M 10.158 33.2 C 3.4054 31.7591 -1.861 26.4692 -3.271 19.71 "
       transform="matrix(2.00 0.00 0.00 2.00 328.00 8.00 ) "
       id="76" />
    <ellipse
       cy="15.00"
       transform="matrix(2.00 0.00 0.00 2.00 328.00 8.00 ) "
       ry="15.00"
       rx="15.00"
       id="77"
       cx="15.00"
       style="fill:rgb(155,91,179);stroke:none;opacity:1;" />
    <path
       style="fill:rgb(255,255,255);stroke:none;fill-rule:evenodd;opacity:1;"
       d="M 11.656 8.2 11.99975 8.7 16.31225 14.7937 11.65605 21.4187 11.28105 21.9187 14.74985 21.9187 14.8436 21.7624 17.9998 17.0124 18.46855 17.7 21.15605 21.7624 21.2498 21.9187 24.7498 21.9187 24.40605 21.4187 19.65605 14.6687 24.06225 8.699997 24.406 8.199997 20.9998 8.199997 20.90605 8.324997 18.68725 11.4187 C 18.46251 11.7285 18.22333 12.1062 17.9685 12.4812 17.77046 12.1547 17.58677 11.8424 17.31225 11.4187 L 15.28105 8.356197 15.1873 8.199997 11.6561 8.199997 z "
       transform="matrix(2.00 0.00 0.00 2.00 328.00 8.00 ) "
       id="78" />
    <ellipse
       cy="12.78"
       transform="matrix(2.00 0.00 0.00 2.00 328.00 8.00 ) "
       ry="3.00"
       rx="3.00"
       id="79"
       cx="8.79"
       style="fill:rgb(255,255,255);stroke:none;opacity:1;" />
    <text
       transform="matrix(1.00 0.00 0.00 1.00 0.00 0.00 ) "
       x="328.00px"
       y="78.00px"
       id="80"
       style="opacity:1;fill:rgb(0,0,0);font-family:DejaVu Sans;stroke:none;font-size:8.25pt;clip-path:url(#82_text_clipper);"
       clip-path="url(#82_text_clipper)"><tspan
         id="84"
         dy="8.25pt">PythonEngine</tspan></text>
    <ellipse
       cy="15.00"
       transform="matrix(2.00 0.00 0.00 2.00 328.00 168.00 ) "
       ry="15.00"
       rx="15.00"
       id="86"
       cx="15.00"
       style="fill:rgb(238,192,75);stroke:none;opacity:1;" />
    <path
       style="stroke-linecap:butt;fill:none;stroke-linejoin:miter;stroke-width:2;opacity:1;stroke:rgb(169,169,169);stroke-miterlimit:9;"
       d="M 1.5363 7.8 C 1.99103 6.9385 2.52798 6.1205 3.1403 5.3587 3.7527 4.5967 4.4403 3.8909 5.1968 3.254 5.95315 2.617 6.7782 2.049 7.665299 1.5627 M 0.4537992 19.4997 C 0.1435492 18.4956 -0.05714077 17.4835 -0.1564507 16.4769 -0.2551987 15.4701 -0.2516447 14.4684 -0.1525816 13.4844 -0.05334165 12.5007 0.1414284 11.5347 0.4251484 10.5993 M 7.892348 28.3993 C 7.030958 27.9447 6.212848 27.4077 5.450948 26.7954 4.689008 26.1831 3.983248 25.4954 3.346348 24.739 2.709558 23.9826 2.141548 23.1575 1.655148 22.2704 M 19.49415 29.4993 C 18.48995 29.8096 17.47785 30.0103 16.47125 30.1096 15.46445 30.2084 14.46285 30.2049 13.47895 30.1018 12.49507 30.0028 11.52915 29.8079 10.59365 29.5242 M 28.46365 22.0993 C 28.00892 22.9606 27.472 23.7788 26.85965 24.5407 26.24738 25.3026 25.55945 26.0084 24.80315 26.6453 24.0468 27.2822 23.22175 27.8502 22.33465 28.3365 M 29.54565 10.4995 C 29.85594 11.5037 30.05659 12.5157 30.15594 13.5224 30.25481 14.5292 30.25114 15.531 30.15199 16.5147 30.05279 17.4986 29.85802 18.4646 29.5743 19.4 M 22.10769 1.499998 C 22.96908 1.954698 23.7872 2.491698 24.5491 3.103898 25.31104 3.716298 26.0168 4.404098 26.65369 5.160398 27.29052 5.916898 27.85859 6.741898 28.34499 7.629098 M 10.50499 0.3999977 C 11.50919 0.08969772 12.52109 -0.1109023 13.52779 -0.2103023 14.53469 -0.3090023 15.53619 -0.3055023 16.52009 -0.2103023 17.50401 -0.1111023 18.46999 0.08369771 19.40549 0.3673977 "
       transform="matrix(2.00 0.00 0.00 2.00 328.00 168.00 ) "
       id="87" />
    <path
       style="fill:rgb(255,255,255);stroke:none;fill-rule:evenodd;opacity:1;"
       d="M 11.3179 21.72318 C 8.756601 20.9618 8.193822 22.28426 6.911188 19.7007 8.37571 19.54358 9.810803 19.22517 11.3179 21.72318 z "
       transform="matrix(2.00 0.00 0.00 2.00 331.08 178.06 ) "
       id="88" />
    <path
       style="fill:rgb(255,255,255);stroke:none;fill-rule:evenodd;opacity:1;"
       d="M 13.05738 -1.7279 13.05789 -1.727383 C 12.17987 -1.727403 11.46779 -1.01533 11.46781 -0.1372997 11.46837 0.3156908 11.66225 0.7464415 12.0006 1.047641 L 11.32518 1.723569 11.32518 4.223158 9.636397 4.223158 8.658163 3.24544 C 9.06866 2.947344 9.312389 2.471179 9.313936 1.963864 9.313955 1.085835 8.601883 0.3737611 7.723853 0.3737802 6.845862 0.3738163 6.134266 1.085874 6.134286 1.963864 6.135866 2.534318 6.442831 3.05987 6.938888 3.341558 L 9.128935 5.531605 11.32518 5.531605 11.32518 8.753114 9.446228 8.753114 C 9.312206 8.490113 9.04171 8.324265 8.74653 8.3242 8.312901 8.324207 7.961573 8.675536 7.961565 9.109164 7.961573 9.542791 8.312902 9.894637 8.74653 9.894647 8.933135 9.894496 9.113586 9.827666 9.255543 9.706545 L 11.32518 9.706545 11.32518 13.95641 7.560555 13.95641 6.822616 12.67846 C 6.851861 12.55966 6.86729 12.43802 6.868608 12.31569 6.868572 11.43769 6.157032 10.7261 5.279041 10.72612 4.401051 10.7261 3.688993 11.43769 3.688957 12.31569 3.688937 13.19373 4.401011 13.90578 5.279041 13.90577 5.593586 13.90519 5.900536 13.81084 6.161674 13.6355 L 6.992115 15.07417 11.32518 15.07417 11.32518 21.72855 13.17107 21.72855 13.17107 18.50446 13.2243 18.50446 16.49541 16.61568 C 16.87399 16.45496 16.89746 16.07538 16.89746 15.96766 L 18.22451 15.96766 C 18.47396 16.55291 19.04869 16.93302 19.68489 16.93401 20.56288 16.93398 21.27448 16.22192 21.27445 15.34393 21.27442 14.46598 20.56284 13.75439 19.68489 13.75436 19.04737 13.75546 18.47203 14.13728 18.22347 14.72433 L 16.7538 14.72433 C 16.5782 14.44372 16.2709 14.2728 15.93989 14.27164 15.40745 14.27167 14.97559 14.70349 14.97561 15.23592 14.97601 15.46194 15.05566 15.68029 15.20092 15.85346 L 13.18037 17.02031 13.18037 12.54926 19.14228 9.107098 C 19.14306 9.107165 19.14312 9.107039 19.14438 9.107098 19.42278 9.097998 19.66679 8.918532 19.7583 8.655446 L 21.67808 8.655446 C 21.97128 8.928705 22.3568 9.081208 22.7576 9.082294 23.63559 9.082313 24.34765 8.370722 24.34768 7.492726 24.34771 6.614691 23.63564 5.902623 22.7576 5.902642 21.87961 5.902678 21.16802 6.614729 21.16803 7.492726 21.16862 7.501966 21.16887 7.511364 21.17013 7.520631 L 19.70821 7.520631 19.69787 2.668731 C 20.27455 2.415151 20.64706 1.84505 20.64768 1.215073 20.6477 0.337038 19.93615 -0.3745142 19.05811 -0.3744938 18.18009 -0.3745141 17.46801 0.3370369 17.46803 1.215073 17.46913 1.863035 17.86457 2.445438 18.4659 2.686818 L 18.4659 8.261154 12.50037 11.70539 12.49627 11.70069 12.49627 2.590699 13.85278 1.23471 C 14.34323 0.9514189 14.64558 0.4285644 14.64705 -0.1378164 14.64707 -1.015807 13.93548 -1.727865 13.05748 -1.7279 z "
       transform="matrix(2.00 0.00 0.00 2.00 331.08 178.06 ) "
       id="89" />
    <rect
       transform="matrix(2.00 0.00 0.00 2.00 331.08 178.06 ) "
       height="3.68"
       x="13.05"
       y="18.05"
       id="90"
       width="0.54"
       style="fill:rgb(255,255,255);stroke:none;opacity:1;" />
    <text
       transform="matrix(1.00 0.00 0.00 1.00 0.00 0.00 ) "
       x="328.00px"
       y="238.00px"
       id="91"
       style="opacity:1;fill:rgb(0,0,0);font-family:DejaVu Sans;stroke:none;font-size:8.25pt;clip-path:url(#93_text_clipper);"
       clip-path="url(#93_text_clipper)"><tspan
         id="95"
         dy="8.25pt">CreateKF</tspan></text>
    <text
       transform="matrix(1.00 0.00 0.00 1.00 0.00 0.00 ) "
       x="328.00px"
       y="265.00px"
       id="97"
       style="opacity:1;fill:rgb(0,0,0);font-family:DejaVu Sans;stroke:none;font-size:8.25pt;clip-path:url(#99_text_clipper);"
       clip-path="url(#99_text_clipper)"><tspan
         id="101"
         dy="8.25pt">Model</tspan></text>
    <path
       style="stroke-linecap:butt;fill:none;stroke-linejoin:miter;stroke-width:2;opacity:1;stroke:rgb(169,169,169);stroke-miterlimit:9;"
       d="M 10.158 33.2 C 3.4054 31.7591 -1.861 26.4692 -3.271 19.71 "
       transform="matrix(2.00 0.00 0.00 2.00 328.00 328.00 ) "
       id="103" />
    <ellipse
       cy="15.00"
       transform="matrix(2.00 0.00 0.00 2.00 328.00 328.00 ) "
       ry="15.00"
       rx="15.00"
       id="104"
       cx="15.00"
       style="fill:rgb(155,91,179);stroke:none;opacity:1;" />
    <path
       style="fill:rgb(255,255,255);stroke:none;fill-rule:evenodd;opacity:1;"
       d="M 11.656 8.2 11.99975 8.7 16.31225 14.7937 11.65605 21.4187 11.28105 21.9187 14.74985 21.9187 14.8436 21.7624 17.9998 17.0124 18.46855 17.7 21.15605 21.7624 21.2498 21.9187 24.7498 21.9187 24.40605 21.4187 19.65605 14.6687 24.06225 8.699997 24.406 8.199997 20.9998 8.199997 20.90605 8.324997 18.68725 11.4187 C 18.46251 11.7285 18.22333 12.1062 17.9685 12.4812 17.77046 12.1547 17.58677 11.8424 17.31225 11.4187 L 15.28105 8.356197 15.1873 8.199997 11.6561 8.199997 z "
       transform="matrix(2.00 0.00 0.00 2.00 328.00 328.00 ) "
       id="105" />
    <ellipse
       cy="12.78"
       transform="matrix(2.00 0.00 0.00 2.00 328.00 328.00 ) "
       ry="3.00"
       rx="3.00"
       id="106"
       cx="8.79"
       style="fill:rgb(255,255,255);stroke:none;opacity:1;" />
    <text
       transform="matrix(1.00 0.00 0.00 1.00 0.00 0.00 ) "
       x="328.00px"
       y="398.00px"
       id="107"
       style="opacity:1;fill:rgb(0,0,0);font-family:DejaVu Sans;stroke:none;font-size:8.25pt;clip-path:url(#109_text_clipper);"
       clip-path="url(#109_text_clipper)"><tspan
         id="111"
         dy="8.25pt">Observation</tspan></text>
    <path
       style="stroke-linecap:butt;fill:none;stroke-linejoin:miter;stroke-width:2;opacity:1;stroke:rgb(169,169,169);stroke-miterlimit:9;"
       d="M 10.158 33.2 C 3.4054 31.7591 -1.861 26.4692 -3.271 19.71 "
       transform="matrix(2.00 0.00 0.00 2.00 328.00 488.00 ) "
       id="113" />
    <ellipse
       cy="15.00"
       transform="matrix(2.00 0.00 0.00 2.00 328.00 488.00 ) "
       ry="15.00"
       rx="15.00"
       id="114"
       cx="15.00"
       style="fill:rgb(155,91,179);stroke:none;opacity:1;" />
    <path
       style="fill:rgb(255,255,255);stroke:none;fill-rule:evenodd;opacity:1;"
       d="M 11.656 8.2 11.99975 8.7 16.31225 14.7937 11.65605 21.4187 11.28105 21.9187 14.74985 21.9187 14.8436 21.7624 17.9998 17.0124 18.46855 17.7 21.15605 21.7624 21.2498 21.9187 24.7498 21.9187 24.40605 21.4187 19.65605 14.6687 24.06225 8.699997 24.406 8.199997 20.9998 8.199997 20.90605 8.324997 18.68725 11.4187 C 18.46251 11.7285 18.22333 12.1062 17.9685 12.4812 17.77046 12.1547 17.58677 11.8424 17.31225 11.4187 L 15.28105 8.356197 15.1873 8.199997 11.6561 8.199997 z "
       transform="matrix(2.00 0.00 0.00 2.00 328.00 488.00 ) "
       id="115" />
    <ellipse
       cy="12.78"
       transform="matrix(2.00 0.00 0.00 2.00 328.00 488.00 ) "
       ry="3.00"
       rx="3.00"
       id="116"
       cx="8.79"
       style="fill:rgb(255,255,255);stroke:none;opacity:1;" />
    <text
       transform="matrix(1.00 0.00 0.00 1.00 0.00 0.00 ) "
       x="328.00px"
       y="558.00px"
       id="117"
       style="opacity:1;fill:rgb(0,0,0);font-family:DejaVu Sans;stroke:none;font-size:8.25pt;clip-path:url(#119_text_clipper);"
       clip-path="url(#119_text_clipper)"><tspan
         id="121"
         dy="8.25pt">Inferred</tspan></text>
    <text
       transform="matrix(1.00 0.00 0.00 1.00 0.00 0.00 ) "
       x="328.00px"
       y="585.00px"
       id="123"
       style="opacity:1;fill:rgb(0,0,0);font-family:DejaVu Sans;stroke:none;font-size:8.25pt;clip-path:url(#125_text_clipper);"
       clip-path="url(#125_text_clipper)"><tspan
         id="127"
         dy="8.25pt">Kinematics</tspan></text>
    <path
       style="stroke-linecap:butt;fill:none;stroke-linejoin:miter;stroke-width:2;opacity:1;stroke:rgb(169,169,169);stroke-miterlimit:9;"
       d="M 31.179 5.2 C 34.9985 11.0918 34.9814 18.682 31.13552 24.557 "
       transform="matrix(2.00 0.00 0.00 2.00 168.00 8.00 ) "
       id="129" />
    <ellipse
       cy="15.00"
       transform="matrix(2.00 0.00 0.00 2.00 168.00 8.00 ) "
       ry="15.00"
       rx="15.00"
       id="130"
       cx="15.00"
       style="fill:rgb(91,178,126);stroke:none;opacity:1;" />
    <path
       style="fill:rgb(255,255,255);stroke:none;fill-rule:evenodd;opacity:1;"
       transform="matrix(2.00 0.00 0.00 2.00 168.00 8.00 ) "
       id="131"
       d="M 10.824 9.4752 3.5613 15.0588 10.824 20.6107 10.81521 18.3247 6.519011 15.0267 10.82391 11.7422 z " />
    <path
       style="fill:rgb(255,255,255);stroke:none;fill-rule:evenodd;opacity:1;"
       transform="matrix(2.00 0.00 0.00 2.00 168.00 8.00 ) "
       id="132"
       d="M 15.365 7.2336 C 15.34647 7.33547 15.32125 7.4371 15.31422 7.5375 14.41077 12.6441 13.49692 17.7495 12.59942 22.8575 12.59508 22.88635 12.6018 22.91223 12.59942 22.94062 L 14.62872 22.94062 C 14.70348 22.53324 14.73679 22.1026 14.8377 21.71462 15.68204 16.94102 16.5365 12.17012 17.3748 7.394619 17.38163 7.340435 17.37866 7.287239 17.3787 7.233579 z " />
    <path
       style="fill:rgb(255,255,255);stroke:none;fill-rule:evenodd;opacity:1;"
       transform="matrix(2.00 0.00 0.00 2.00 168.00 8.00 ) "
       id="133"
       d="M 19.044 9.4746 26.3067 15.0582 19.044 20.6101 19.05279 18.3241 23.34899 15.0261 19.04409 11.7416 z " />
    <text
       transform="matrix(1.00 0.00 0.00 1.00 0.00 0.00 ) "
       x="168.00px"
       y="78.00px"
       id="134"
       style="opacity:1;fill:rgb(0,0,0);font-family:DejaVu Sans;stroke:none;font-size:8.25pt;clip-path:url(#136_text_clipper);"
       clip-path="url(#136_text_clipper)"><tspan
         id="138"
         dy="8.25pt">Create</tspan></text>
    <text
       transform="matrix(1.00 0.00 0.00 1.00 0.00 0.00 ) "
       x="168.00px"
       y="105.00px"
       id="140"
       style="opacity:1;fill:rgb(0,0,0);font-family:DejaVu Sans;stroke:none;font-size:8.25pt;clip-path:url(#142_text_clipper);"
       clip-path="url(#142_text_clipper)"><tspan
         id="144"
         dy="8.25pt">Runtime</tspan></text>
    <ellipse
       cy="15.00"
       transform="matrix(2.00 0.00 0.00 2.00 168.00 168.00 ) "
       ry="15.00"
       rx="15.00"
       id="146"
       cx="15.00"
       style="fill:rgb(238,192,75);stroke:none;opacity:1;" />
    <path
       style="stroke-linecap:butt;fill:none;stroke-linejoin:miter;stroke-width:2;opacity:1;stroke:rgb(169,169,169);stroke-miterlimit:9;"
       d="M 1.5363 7.8 C 1.99103 6.9385 2.52798 6.1205 3.1403 5.3587 3.7527 4.5967 4.4403 3.8909 5.1968 3.254 5.95315 2.617 6.7782 2.049 7.665299 1.5627 M 0.4537992 19.4997 C 0.1435492 18.4956 -0.05714077 17.4835 -0.1564507 16.4769 -0.2551987 15.4701 -0.2516447 14.4684 -0.1525816 13.4844 -0.05334165 12.5007 0.1414284 11.5347 0.4251484 10.5993 M 7.892348 28.3993 C 7.030958 27.9447 6.212848 27.4077 5.450948 26.7954 4.689008 26.1831 3.983248 25.4954 3.346348 24.739 2.709558 23.9826 2.141548 23.1575 1.655148 22.2704 M 19.49415 29.4993 C 18.48995 29.8096 17.47785 30.0103 16.47125 30.1096 15.46445 30.2084 14.46285 30.2049 13.47895 30.1018 12.49507 30.0028 11.52915 29.8079 10.59365 29.5242 M 28.46365 22.0993 C 28.00892 22.9606 27.472 23.7788 26.85965 24.5407 26.24738 25.3026 25.55945 26.0084 24.80315 26.6453 24.0468 27.2822 23.22175 27.8502 22.33465 28.3365 M 29.54565 10.4995 C 29.85594 11.5037 30.05659 12.5157 30.15594 13.5224 30.25481 14.5292 30.25114 15.531 30.15199 16.5147 30.05279 17.4986 29.85802 18.4646 29.5743 19.4 M 22.10769 1.499998 C 22.96908 1.954698 23.7872 2.491698 24.5491 3.103898 25.31104 3.716298 26.0168 4.404098 26.65369 5.160398 27.29052 5.916898 27.85859 6.741898 28.34499 7.629098 M 10.50499 0.3999977 C 11.50919 0.08969772 12.52109 -0.1109023 13.52779 -0.2103023 14.53469 -0.3090023 15.53619 -0.3055023 16.52009 -0.2103023 17.50401 -0.1111023 18.46999 0.08369771 19.40549 0.3673977 "
       transform="matrix(2.00 0.00 0.00 2.00 168.00 168.00 ) "
       id="147" />
    <path
       style="fill:rgb(255,255,255);stroke:none;fill-rule:evenodd;opacity:1;"
       d="M 11.3179 21.72318 C 8.756601 20.9618 8.193822 22.28426 6.911188 19.7007 8.37571 19.54358 9.810803 19.22517 11.3179 21.72318 z "
       transform="matrix(2.00 0.00 0.00 2.00 171.08 178.06 ) "
       id="148" />
    <path
       style="fill:rgb(255,255,255);stroke:none;fill-rule:evenodd;opacity:1;"
       d="M 13.05738 -1.7279 13.05789 -1.727383 C 12.17987 -1.727403 11.46779 -1.01533 11.46781 -0.1372997 11.46837 0.3156908 11.66225 0.7464415 12.0006 1.047641 L 11.32518 1.723569 11.32518 4.223158 9.636397 4.223158 8.658163 3.24544 C 9.06866 2.947344 9.312389 2.471179 9.313936 1.963864 9.313955 1.085835 8.601883 0.3737611 7.723853 0.3737802 6.845862 0.3738163 6.134266 1.085874 6.134286 1.963864 6.135866 2.534318 6.442831 3.05987 6.938888 3.341558 L 9.128935 5.531605 11.32518 5.531605 11.32518 8.753114 9.446228 8.753114 C 9.312206 8.490113 9.04171 8.324265 8.74653 8.3242 8.312901 8.324207 7.961573 8.675536 7.961565 9.109164 7.961573 9.542791 8.312902 9.894637 8.74653 9.894647 8.933135 9.894496 9.113586 9.827666 9.255543 9.706545 L 11.32518 9.706545 11.32518 13.95641 7.560555 13.95641 6.822616 12.67846 C 6.851861 12.55966 6.86729 12.43802 6.868608 12.31569 6.868572 11.43769 6.157032 10.7261 5.279041 10.72612 4.401051 10.7261 3.688993 11.43769 3.688957 12.31569 3.688937 13.19373 4.401011 13.90578 5.279041 13.90577 5.593586 13.90519 5.900536 13.81084 6.161674 13.6355 L 6.992115 15.07417 11.32518 15.07417 11.32518 21.72855 13.17107 21.72855 13.17107 18.50446 13.2243 18.50446 16.49541 16.61568 C 16.87399 16.45496 16.89746 16.07538 16.89746 15.96766 L 18.22451 15.96766 C 18.47396 16.55291 19.04869 16.93302 19.68489 16.93401 20.56288 16.93398 21.27448 16.22192 21.27445 15.34393 21.27442 14.46598 20.56284 13.75439 19.68489 13.75436 19.04737 13.75546 18.47203 14.13728 18.22347 14.72433 L 16.7538 14.72433 C 16.5782 14.44372 16.2709 14.2728 15.93989 14.27164 15.40745 14.27167 14.97559 14.70349 14.97561 15.23592 14.97601 15.46194 15.05566 15.68029 15.20092 15.85346 L 13.18037 17.02031 13.18037 12.54926 19.14228 9.107098 C 19.14306 9.107165 19.14312 9.107039 19.14438 9.107098 19.42278 9.097998 19.66679 8.918532 19.7583 8.655446 L 21.67808 8.655446 C 21.97128 8.928705 22.3568 9.081208 22.7576 9.082294 23.63559 9.082313 24.34765 8.370722 24.34768 7.492726 24.34771 6.614691 23.63564 5.902623 22.7576 5.902642 21.87961 5.902678 21.16802 6.614729 21.16803 7.492726 21.16862 7.501966 21.16887 7.511364 21.17013 7.520631 L 19.70821 7.520631 19.69787 2.668731 C 20.27455 2.415151 20.64706 1.84505 20.64768 1.215073 20.6477 0.337038 19.93615 -0.3745142 19.05811 -0.3744938 18.18009 -0.3745141 17.46801 0.3370369 17.46803 1.215073 17.46913 1.863035 17.86457 2.445438 18.4659 2.686818 L 18.4659 8.261154 12.50037 11.70539 12.49627 11.70069 12.49627 2.590699 13.85278 1.23471 C 14.34323 0.9514189 14.64558 0.4285644 14.64705 -0.1378164 14.64707 -1.015807 13.93548 -1.727865 13.05748 -1.7279 z "
       transform="matrix(2.00 0.00 0.00 2.00 171.08 178.06 ) "
       id="149" />
    <rect
       transform="matrix(2.00 0.00 0.00 2.00 171.08 178.06 ) "
       height="3.68"
       x="13.05"
       y="18.05"
       id="150"
       width="0.54"
       style="fill:rgb(255,255,255);stroke:none;opacity:1;" />
    <text
       transform="matrix(1.00 0.00 0.00 1.00 0.00 0.00 ) "
       x="168.00px"
       y="238.00px"
       id="151"
       style="opacity:1;fill:rgb(0,0,0);font-family:DejaVu Sans;stroke:none;font-size:8.25pt;clip-path:url(#153_text_clipper);"
       clip-path="url(#153_text_clipper)"><tspan
         id="155"
         dy="8.25pt">Linear</tspan></text>
    <text
       transform="matrix(1.00 0.00 0.00 1.00 0.00 0.00 ) "
       x="168.00px"
       y="265.00px"
       id="157"
       style="opacity:1;fill:rgb(0,0,0);font-family:DejaVu Sans;stroke:none;font-size:8.25pt;clip-path:url(#159_text_clipper);"
       clip-path="url(#159_text_clipper)"><tspan
         id="161"
         dy="8.25pt">Dynamical</tspan></text>
    <text
       transform="matrix(1.00 0.00 0.00 1.00 0.00 0.00 ) "
       x="168.00px"
       y="292.00px"
       id="163"
       style="opacity:1;fill:rgb(0,0,0);font-family:DejaVu Sans;stroke:none;font-size:8.25pt;clip-path:url(#165_text_clipper);"
       clip-path="url(#165_text_clipper)"><tspan
         id="167"
         dy="8.25pt">Systems:Load</tspan></text>
    <ellipse
       cy="15.00"
       transform="matrix(2.00 0.00 0.00 2.00 168.00 328.00 ) "
       ry="15.00"
       rx="15.00"
       id="169"
       cx="15.00"
       style="fill:rgb(238,192,75);stroke:none;opacity:1;" />
    <path
       style="stroke-linecap:butt;fill:none;stroke-linejoin:miter;stroke-width:2;opacity:1;stroke:rgb(169,169,169);stroke-miterlimit:9;"
       d="M 1.5363 7.8 C 1.99103 6.9385 2.52798 6.1205 3.1403 5.3587 3.7527 4.5967 4.4403 3.8909 5.1968 3.254 5.95315 2.617 6.7782 2.049 7.665299 1.5627 M 0.4537992 19.4997 C 0.1435492 18.4956 -0.05714077 17.4835 -0.1564507 16.4769 -0.2551987 15.4701 -0.2516447 14.4684 -0.1525816 13.4844 -0.05334165 12.5007 0.1414284 11.5347 0.4251484 10.5993 M 7.892348 28.3993 C 7.030958 27.9447 6.212848 27.4077 5.450948 26.7954 4.689008 26.1831 3.983248 25.4954 3.346348 24.739 2.709558 23.9826 2.141548 23.1575 1.655148 22.2704 M 19.49415 29.4993 C 18.48995 29.8096 17.47785 30.0103 16.47125 30.1096 15.46445 30.2084 14.46285 30.2049 13.47895 30.1018 12.49507 30.0028 11.52915 29.8079 10.59365 29.5242 M 28.46365 22.0993 C 28.00892 22.9606 27.472 23.7788 26.85965 24.5407 26.24738 25.3026 25.55945 26.0084 24.80315 26.6453 24.0468 27.2822 23.22175 27.8502 22.33465 28.3365 M 29.54565 10.4995 C 29.85594 11.5037 30.05659 12.5157 30.15594 13.5224 30.25481 14.5292 30.25114 15.531 30.15199 16.5147 30.05279 17.4986 29.85802 18.4646 29.5743 19.4 M 22.10769 1.499998 C 22.96908 1.954698 23.7872 2.491698 24.5491 3.103898 25.31104 3.716298 26.0168 4.404098 26.65369 5.160398 27.29052 5.916898 27.85859 6.741898 28.34499 7.629098 M 10.50499 0.3999977 C 11.50919 0.08969772 12.52109 -0.1109023 13.52779 -0.2103023 14.53469 -0.3090023 15.53619 -0.3055023 16.52009 -0.2103023 17.50401 -0.1111023 18.46999 0.08369771 19.40549 0.3673977 "
       transform="matrix(2.00 0.00 0.00 2.00 168.00 328.00 ) "
       id="170" />
    <path
       style="fill:rgb(255,255,255);stroke:none;fill-rule:evenodd;opacity:1;"
       d="M 11.3179 21.72318 C 8.756601 20.9618 8.193822 22.28426 6.911188 19.7007 8.37571 19.54358 9.810803 19.22517 11.3179 21.72318 z "
       transform="matrix(2.00 0.00 0.00 2.00 171.08 338.06 ) "
       id="171" />
    <path
       style="fill:rgb(255,255,255);stroke:none;fill-rule:evenodd;opacity:1;"
       d="M 13.05738 -1.7279 13.05789 -1.727383 C 12.17987 -1.727403 11.46779 -1.01533 11.46781 -0.1372997 11.46837 0.3156908 11.66225 0.7464415 12.0006 1.047641 L 11.32518 1.723569 11.32518 4.223158 9.636397 4.223158 8.658163 3.24544 C 9.06866 2.947344 9.312389 2.471179 9.313936 1.963864 9.313955 1.085835 8.601883 0.3737611 7.723853 0.3737802 6.845862 0.3738163 6.134266 1.085874 6.134286 1.963864 6.135866 2.534318 6.442831 3.05987 6.938888 3.341558 L 9.128935 5.531605 11.32518 5.531605 11.32518 8.753114 9.446228 8.753114 C 9.312206 8.490113 9.04171 8.324265 8.74653 8.3242 8.312901 8.324207 7.961573 8.675536 7.961565 9.109164 7.961573 9.542791 8.312902 9.894637 8.74653 9.894647 8.933135 9.894496 9.113586 9.827666 9.255543 9.706545 L 11.32518 9.706545 11.32518 13.95641 7.560555 13.95641 6.822616 12.67846 C 6.851861 12.55966 6.86729 12.43802 6.868608 12.31569 6.868572 11.43769 6.157032 10.7261 5.279041 10.72612 4.401051 10.7261 3.688993 11.43769 3.688957 12.31569 3.688937 13.19373 4.401011 13.90578 5.279041 13.90577 5.593586 13.90519 5.900536 13.81084 6.161674 13.6355 L 6.992115 15.07417 11.32518 15.07417 11.32518 21.72855 13.17107 21.72855 13.17107 18.50446 13.2243 18.50446 16.49541 16.61568 C 16.87399 16.45496 16.89746 16.07538 16.89746 15.96766 L 18.22451 15.96766 C 18.47396 16.55291 19.04869 16.93302 19.68489 16.93401 20.56288 16.93398 21.27448 16.22192 21.27445 15.34393 21.27442 14.46598 20.56284 13.75439 19.68489 13.75436 19.04737 13.75546 18.47203 14.13728 18.22347 14.72433 L 16.7538 14.72433 C 16.5782 14.44372 16.2709 14.2728 15.93989 14.27164 15.40745 14.27167 14.97559 14.70349 14.97561 15.23592 14.97601 15.46194 15.05566 15.68029 15.20092 15.85346 L 13.18037 17.02031 13.18037 12.54926 19.14228 9.107098 C 19.14306 9.107165 19.14312 9.107039 19.14438 9.107098 19.42278 9.097998 19.66679 8.918532 19.7583 8.655446 L 21.67808 8.655446 C 21.97128 8.928705 22.3568 9.081208 22.7576 9.082294 23.63559 9.082313 24.34765 8.370722 24.34768 7.492726 24.34771 6.614691 23.63564 5.902623 22.7576 5.902642 21.87961 5.902678 21.16802 6.614729 21.16803 7.492726 21.16862 7.501966 21.16887 7.511364 21.17013 7.520631 L 19.70821 7.520631 19.69787 2.668731 C 20.27455 2.415151 20.64706 1.84505 20.64768 1.215073 20.6477 0.337038 19.93615 -0.3745142 19.05811 -0.3744938 18.18009 -0.3745141 17.46801 0.3370369 17.46803 1.215073 17.46913 1.863035 17.86457 2.445438 18.4659 2.686818 L 18.4659 8.261154 12.50037 11.70539 12.49627 11.70069 12.49627 2.590699 13.85278 1.23471 C 14.34323 0.9514189 14.64558 0.4285644 14.64705 -0.1378164 14.64707 -1.015807 13.93548 -1.727865 13.05748 -1.7279 z "
       transform="matrix(2.00 0.00 0.00 2.00 171.08 338.06 ) "
       id="172" />
    <rect
       transform="matrix(2.00 0.00 0.00 2.00 171.08 338.06 ) "
       height="3.68"
       x="13.05"
       y="18.05"
       id="173"
       width="0.54"
       style="fill:rgb(255,255,255);stroke:none;opacity:1;" />
    <text
       transform="matrix(1.00 0.00 0.00 1.00 0.00 0.00 ) "
       x="168.00px"
       y="398.00px"
       id="174"
       style="opacity:1;fill:rgb(0,0,0);font-family:DejaVu Sans;stroke:none;font-size:8.25pt;clip-path:url(#176_text_clipper);"
       clip-path="url(#176_text_clipper)"><tspan
         id="178"
         dy="8.25pt">Create</tspan></text>
    <text
       transform="matrix(1.00 0.00 0.00 1.00 0.00 0.00 ) "
       x="168.00px"
       y="425.00px"
       id="180"
       style="opacity:1;fill:rgb(0,0,0);font-family:DejaVu Sans;stroke:none;font-size:8.25pt;clip-path:url(#182_text_clipper);"
       clip-path="url(#182_text_clipper)"><tspan
         id="184"
         dy="8.25pt">Observation2</tspan></text>
    <text
       transform="matrix(1.00 0.00 0.00 1.00 0.00 0.00 ) "
       x="168.00px"
       y="452.00px"
       id="186"
       style="opacity:1;fill:rgb(0,0,0);font-family:DejaVu Sans;stroke:none;font-size:8.25pt;clip-path:url(#188_text_clipper);"
       clip-path="url(#188_text_clipper)"><tspan
         id="190"
         dy="8.25pt">D</tspan></text>
    <ellipse
       cy="15.00"
       transform="matrix(2.00 0.00 0.00 2.00 168.00 488.00 ) "
       ry="15.00"
       rx="15.00"
       id="192"
       cx="15.00"
       style="fill:rgb(238,192,75);stroke:none;opacity:1;" />
    <path
       style="stroke-linecap:butt;fill:none;stroke-linejoin:miter;stroke-width:2;opacity:1;stroke:rgb(169,169,169);stroke-miterlimit:9;"
       d="M 1.5363 7.8 C 1.99103 6.9385 2.52798 6.1205 3.1403 5.3587 3.7527 4.5967 4.4403 3.8909 5.1968 3.254 5.95315 2.617 6.7782 2.049 7.665299 1.5627 M 0.4537992 19.4997 C 0.1435492 18.4956 -0.05714077 17.4835 -0.1564507 16.4769 -0.2551987 15.4701 -0.2516447 14.4684 -0.1525816 13.4844 -0.05334165 12.5007 0.1414284 11.5347 0.4251484 10.5993 M 7.892348 28.3993 C 7.030958 27.9447 6.212848 27.4077 5.450948 26.7954 4.689008 26.1831 3.983248 25.4954 3.346348 24.739 2.709558 23.9826 2.141548 23.1575 1.655148 22.2704 M 19.49415 29.4993 C 18.48995 29.8096 17.47785 30.0103 16.47125 30.1096 15.46445 30.2084 14.46285 30.2049 13.47895 30.1018 12.49507 30.0028 11.52915 29.8079 10.59365 29.5242 M 28.46365 22.0993 C 28.00892 22.9606 27.472 23.7788 26.85965 24.5407 26.24738 25.3026 25.55945 26.0084 24.80315 26.6453 24.0468 27.2822 23.22175 27.8502 22.33465 28.3365 M 29.54565 10.4995 C 29.85594 11.5037 30.05659 12.5157 30.15594 13.5224 30.25481 14.5292 30.25114 15.531 30.15199 16.5147 30.05279 17.4986 29.85802 18.4646 29.5743 19.4 M 22.10769 1.499998 C 22.96908 1.954698 23.7872 2.491698 24.5491 3.103898 25.31104 3.716298 26.0168 4.404098 26.65369 5.160398 27.29052 5.916898 27.85859 6.741898 28.34499 7.629098 M 10.50499 0.3999977 C 11.50919 0.08969772 12.52109 -0.1109023 13.52779 -0.2103023 14.53469 -0.3090023 15.53619 -0.3055023 16.52009 -0.2103023 17.50401 -0.1111023 18.46999 0.08369771 19.40549 0.3673977 "
       transform="matrix(2.00 0.00 0.00 2.00 168.00 488.00 ) "
       id="193" />
    <path
       style="fill:rgb(255,255,255);stroke:none;fill-rule:evenodd;opacity:1;"
       d="M 11.3179 21.72318 C 8.756601 20.9618 8.193822 22.28426 6.911188 19.7007 8.37571 19.54358 9.810803 19.22517 11.3179 21.72318 z "
       transform="matrix(2.00 0.00 0.00 2.00 171.08 498.06 ) "
       id="194" />
    <path
       style="fill:rgb(255,255,255);stroke:none;fill-rule:evenodd;opacity:1;"
       d="M 13.05738 -1.7279 13.05789 -1.727383 C 12.17987 -1.727403 11.46779 -1.01533 11.46781 -0.1372997 11.46837 0.3156908 11.66225 0.7464415 12.0006 1.047641 L 11.32518 1.723569 11.32518 4.223158 9.636397 4.223158 8.658163 3.24544 C 9.06866 2.947344 9.312389 2.471179 9.313936 1.963864 9.313955 1.085835 8.601883 0.3737611 7.723853 0.3737802 6.845862 0.3738163 6.134266 1.085874 6.134286 1.963864 6.135866 2.534318 6.442831 3.05987 6.938888 3.341558 L 9.128935 5.531605 11.32518 5.531605 11.32518 8.753114 9.446228 8.753114 C 9.312206 8.490113 9.04171 8.324265 8.74653 8.3242 8.312901 8.324207 7.961573 8.675536 7.961565 9.109164 7.961573 9.542791 8.312902 9.894637 8.74653 9.894647 8.933135 9.894496 9.113586 9.827666 9.255543 9.706545 L 11.32518 9.706545 11.32518 13.95641 7.560555 13.95641 6.822616 12.67846 C 6.851861 12.55966 6.86729 12.43802 6.868608 12.31569 6.868572 11.43769 6.157032 10.7261 5.279041 10.72612 4.401051 10.7261 3.688993 11.43769 3.688957 12.31569 3.688937 13.19373 4.401011 13.90578 5.279041 13.90577 5.593586 13.90519 5.900536 13.81084 6.161674 13.6355 L 6.992115 15.07417 11.32518 15.07417 11.32518 21.72855 13.17107 21.72855 13.17107 18.50446 13.2243 18.50446 16.49541 16.61568 C 16.87399 16.45496 16.89746 16.07538 16.89746 15.96766 L 18.22451 15.96766 C 18.47396 16.55291 19.04869 16.93302 19.68489 16.93401 20.56288 16.93398 21.27448 16.22192 21.27445 15.34393 21.27442 14.46598 20.56284 13.75439 19.68489 13.75436 19.04737 13.75546 18.47203 14.13728 18.22347 14.72433 L 16.7538 14.72433 C 16.5782 14.44372 16.2709 14.2728 15.93989 14.27164 15.40745 14.27167 14.97559 14.70349 14.97561 15.23592 14.97601 15.46194 15.05566 15.68029 15.20092 15.85346 L 13.18037 17.02031 13.18037 12.54926 19.14228 9.107098 C 19.14306 9.107165 19.14312 9.107039 19.14438 9.107098 19.42278 9.097998 19.66679 8.918532 19.7583 8.655446 L 21.67808 8.655446 C 21.97128 8.928705 22.3568 9.081208 22.7576 9.082294 23.63559 9.082313 24.34765 8.370722 24.34768 7.492726 24.34771 6.614691 23.63564 5.902623 22.7576 5.902642 21.87961 5.902678 21.16802 6.614729 21.16803 7.492726 21.16862 7.501966 21.16887 7.511364 21.17013 7.520631 L 19.70821 7.520631 19.69787 2.668731 C 20.27455 2.415151 20.64706 1.84505 20.64768 1.215073 20.6477 0.337038 19.93615 -0.3745142 19.05811 -0.3744938 18.18009 -0.3745141 17.46801 0.3370369 17.46803 1.215073 17.46913 1.863035 17.86457 2.445438 18.4659 2.686818 L 18.4659 8.261154 12.50037 11.70539 12.49627 11.70069 12.49627 2.590699 13.85278 1.23471 C 14.34323 0.9514189 14.64558 0.4285644 14.64705 -0.1378164 14.64707 -1.015807 13.93548 -1.727865 13.05748 -1.7279 z "
       transform="matrix(2.00 0.00 0.00 2.00 171.08 498.06 ) "
       id="195" />
    <rect
       transform="matrix(2.00 0.00 0.00 2.00 171.08 498.06 ) "
       height="3.68"
       x="13.05"
       y="18.05"
       id="196"
       width="0.54"
       style="fill:rgb(255,255,255);stroke:none;opacity:1;" />
    <text
       transform="matrix(1.00 0.00 0.00 1.00 0.00 0.00 ) "
       x="168.00px"
       y="558.00px"
       id="197"
       style="opacity:1;fill:rgb(0,0,0);font-family:DejaVu Sans;stroke:none;font-size:8.25pt;clip-path:url(#199_text_clipper);"
       clip-path="url(#199_text_clipper)"><tspan
         id="201"
         dy="8.25pt">Perform</tspan></text>
    <text
       transform="matrix(1.00 0.00 0.00 1.00 0.00 0.00 ) "
       x="168.00px"
       y="585.00px"
       id="203"
       style="opacity:1;fill:rgb(0,0,0);font-family:DejaVu Sans;stroke:none;font-size:8.25pt;clip-path:url(#205_text_clipper);"
       clip-path="url(#205_text_clipper)"><tspan
         id="207"
         dy="8.25pt">Inference</tspan></text>
    <path
       style="stroke-linecap:butt;fill:none;stroke-linejoin:miter;stroke-width:2;opacity:1;stroke:rgb(169,169,169);stroke-miterlimit:9;"
       d="M 31.179 5.2 C 34.9985 11.0918 34.9814 18.682 31.13552 24.557 "
       transform="matrix(2.00 0.00 0.00 2.00 8.00 168.00 ) "
       id="209" />
    <ellipse
       cy="15.00"
       transform="matrix(2.00 0.00 0.00 2.00 8.00 168.00 ) "
       ry="15.00"
       rx="15.00"
       id="210"
       cx="15.00"
       style="fill:rgb(91,178,126);stroke:none;opacity:1;" />
    <path
       style="fill:rgb(255,255,255);stroke:none;fill-rule:evenodd;opacity:1;"
       d="M 4.4028 13 4.93347 11.3266 C 6.15637 11.7667 7.04467 12.1477 7.598371 12.4698 7.45224 11.0476 7.37533 10.0696 7.36764 9.5352 L 9.040441 9.5352 C 9.017365 10.3131 8.92891 11.2873 8.775101 12.4581 9.567261 12.0495 10.4748 11.6723 11.4977 11.3266 L 12.02837 13 C 11.05162 13.3302 10.09407 13.5502 9.155771 13.6601 9.624911 14.0766 10.28637 14.819 11.14007 15.8877 L 9.755671 16.8894 C 9.30959 16.2687 8.782761 15.4241 8.175171 14.3554 7.606041 15.4633 7.106171 16.308 6.675471 16.8894 L 5.314171 15.8877 C 6.206311 14.7642 6.844671 14.0216 7.229171 13.6601 6.237041 13.4637 5.294871 13.2437 4.402771 13 z "
       transform="matrix(2.00 0.00 0.00 2.00 8.00 168.00 ) "
       id="211" />
    <path
       style="fill:rgb(255,255,255);stroke:none;fill-rule:evenodd;opacity:1;"
       d="M 11.656 8.2 11.99975 8.7 16.31225 14.7937 11.65605 21.4187 11.28105 21.9187 14.74985 21.9187 14.8436 21.7624 17.9998 17.0124 18.46855 17.7 21.15605 21.7624 21.2498 21.9187 24.7498 21.9187 24.40605 21.4187 19.65605 14.6687 24.06225 8.699997 24.406 8.199997 20.9998 8.199997 20.90605 8.324997 18.68725 11.4187 C 18.46251 11.7285 18.22333 12.1062 17.9685 12.4812 17.77046 12.1547 17.58677 11.8424 17.31225 11.4187 L 15.28105 8.356197 15.1873 8.199997 11.6561 8.199997 z "
       transform="matrix(2.00 0.00 0.00 2.00 8.00 168.00 ) "
       id="212" />
    <text
       transform="matrix(1.00 0.00 0.00 1.00 0.00 0.00 ) "
       x="8.00px"
       y="238.00px"
       id="213"
       style="opacity:1;fill:rgb(0,0,0);font-family:DejaVu Sans;stroke:none;font-size:8.25pt;clip-path:url(#215_text_clipper);"
       clip-path="url(#215_text_clipper)"><tspan
         id="217"
         dy="8.25pt">PythonEngine</tspan></text>
    <path
       style="stroke-linecap:butt;fill:none;stroke-linejoin:miter;stroke-width:2;opacity:1;stroke:rgb(169,169,169);stroke-miterlimit:9;"
       d="M 31.179 5.2 C 34.9985 11.0918 34.9814 18.682 31.13552 24.557 "
       transform="matrix(2.00 0.00 0.00 2.00 8.00 328.00 ) "
       id="219" />
    <ellipse
       cy="15.00"
       transform="matrix(2.00 0.00 0.00 2.00 8.00 328.00 ) "
       ry="15.00"
       rx="15.00"
       id="220"
       cx="15.00"
       style="fill:rgb(91,178,126);stroke:none;opacity:1;" />
    <path
       style="fill:rgb(255,255,255);stroke:none;fill-rule:evenodd;opacity:1;"
       d="M 4.4028 13 4.93347 11.3266 C 6.15637 11.7667 7.04467 12.1477 7.598371 12.4698 7.45224 11.0476 7.37533 10.0696 7.36764 9.5352 L 9.040441 9.5352 C 9.017365 10.3131 8.92891 11.2873 8.775101 12.4581 9.567261 12.0495 10.4748 11.6723 11.4977 11.3266 L 12.02837 13 C 11.05162 13.3302 10.09407 13.5502 9.155771 13.6601 9.624911 14.0766 10.28637 14.819 11.14007 15.8877 L 9.755671 16.8894 C 9.30959 16.2687 8.782761 15.4241 8.175171 14.3554 7.606041 15.4633 7.106171 16.308 6.675471 16.8894 L 5.314171 15.8877 C 6.206311 14.7642 6.844671 14.0216 7.229171 13.6601 6.237041 13.4637 5.294871 13.2437 4.402771 13 z "
       transform="matrix(2.00 0.00 0.00 2.00 8.00 328.00 ) "
       id="221" />
    <path
       style="fill:rgb(255,255,255);stroke:none;fill-rule:evenodd;opacity:1;"
       d="M 11.656 8.2 11.99975 8.7 16.31225 14.7937 11.65605 21.4187 11.28105 21.9187 14.74985 21.9187 14.8436 21.7624 17.9998 17.0124 18.46855 17.7 21.15605 21.7624 21.2498 21.9187 24.7498 21.9187 24.40605 21.4187 19.65605 14.6687 24.06225 8.699997 24.406 8.199997 20.9998 8.199997 20.90605 8.324997 18.68725 11.4187 C 18.46251 11.7285 18.22333 12.1062 17.9685 12.4812 17.77046 12.1547 17.58677 11.8424 17.31225 11.4187 L 15.28105 8.356197 15.1873 8.199997 11.6561 8.199997 z "
       transform="matrix(2.00 0.00 0.00 2.00 8.00 328.00 ) "
       id="222" />
    <text
       transform="matrix(1.00 0.00 0.00 1.00 0.00 0.00 ) "
       x="8.00px"
       y="398.00px"
       id="223"
       style="opacity:1;fill:rgb(0,0,0);font-family:DejaVu Sans;stroke:none;font-size:8.25pt;clip-path:url(#225_text_clipper);"
       clip-path="url(#225_text_clipper)"><tspan
         id="227"
         dy="8.25pt">BehaviorData</tspan></text>
    <path
       style="stroke-linecap:butt;fill:none;stroke-linejoin:miter;stroke-width:2;opacity:1;stroke:rgb(169,169,169);stroke-miterlimit:9;"
       d="M 31.179 5.2 C 34.9985 11.0918 34.9814 18.682 31.13552 24.557 "
       transform="matrix(2.00 0.00 0.00 2.00 8.00 488.00 ) "
       id="229" />
    <ellipse
       cy="15.00"
       transform="matrix(2.00 0.00 0.00 2.00 8.00 488.00 ) "
       ry="15.00"
       rx="15.00"
       id="230"
       cx="15.00"
       style="fill:rgb(91,178,126);stroke:none;opacity:1;" />
    <path
       style="fill:rgb(255,255,255);stroke:none;fill-rule:evenodd;opacity:1;"
       d="M 4.4028 13 4.93347 11.3266 C 6.15637 11.7667 7.04467 12.1477 7.598371 12.4698 7.45224 11.0476 7.37533 10.0696 7.36764 9.5352 L 9.040441 9.5352 C 9.017365 10.3131 8.92891 11.2873 8.775101 12.4581 9.567261 12.0495 10.4748 11.6723 11.4977 11.3266 L 12.02837 13 C 11.05162 13.3302 10.09407 13.5502 9.155771 13.6601 9.624911 14.0766 10.28637 14.819 11.14007 15.8877 L 9.755671 16.8894 C 9.30959 16.2687 8.782761 15.4241 8.175171 14.3554 7.606041 15.4633 7.106171 16.308 6.675471 16.8894 L 5.314171 15.8877 C 6.206311 14.7642 6.844671 14.0216 7.229171 13.6601 6.237041 13.4637 5.294871 13.2437 4.402771 13 z "
       transform="matrix(2.00 0.00 0.00 2.00 8.00 488.00 ) "
       id="231" />
    <path
       style="fill:rgb(255,255,255);stroke:none;fill-rule:evenodd;opacity:1;"
       d="M 11.656 8.2 11.99975 8.7 16.31225 14.7937 11.65605 21.4187 11.28105 21.9187 14.74985 21.9187 14.8436 21.7624 17.9998 17.0124 18.46855 17.7 21.15605 21.7624 21.2498 21.9187 24.7498 21.9187 24.40605 21.4187 19.65605 14.6687 24.06225 8.699997 24.406 8.199997 20.9998 8.199997 20.90605 8.324997 18.68725 11.4187 C 18.46251 11.7285 18.22333 12.1062 17.9685 12.4812 17.77046 12.1547 17.58677 11.8424 17.31225 11.4187 L 15.28105 8.356197 15.1873 8.199997 11.6561 8.199997 z "
       transform="matrix(2.00 0.00 0.00 2.00 8.00 488.00 ) "
       id="232" />
    <text
       transform="matrix(1.00 0.00 0.00 1.00 0.00 0.00 ) "
       x="8.00px"
       y="558.00px"
       id="233"
       style="opacity:1;fill:rgb(0,0,0);font-family:DejaVu Sans;stroke:none;font-size:8.25pt;clip-path:url(#235_text_clipper);"
       clip-path="url(#235_text_clipper)"><tspan
         id="237"
         dy="8.25pt">Observation</tspan></text>
  </g>
  <defs
     id="clips_hatches_and_gradients">
    <clipPath
       id="82_text_clipper">
      <rect
         height="27.00"
         width="152.00"
         x="328.00"
         y="78.00"
         id="83" />
    </clipPath>
    <clipPath
       id="93_text_clipper">
      <rect
         height="54.00"
         width="101.00"
         x="328.00"
         y="238.00"
         id="94" />
    </clipPath>
    <clipPath
       id="99_text_clipper">
      <rect
         height="54.00"
         width="101.00"
         x="328.00"
         y="265.00"
         id="100" />
    </clipPath>
    <clipPath
       id="109_text_clipper">
      <rect
         height="27.00"
         width="133.00"
         x="328.00"
         y="398.00"
         id="110" />
    </clipPath>
    <clipPath
       id="119_text_clipper">
      <rect
         height="54.00"
         width="120.00"
         x="328.00"
         y="558.00"
         id="120" />
    </clipPath>
    <clipPath
       id="125_text_clipper">
      <rect
         height="54.00"
         width="120.00"
         x="328.00"
         y="585.00"
         id="126" />
    </clipPath>
    <clipPath
       id="136_text_clipper">
      <rect
         height="54.00"
         width="93.00"
         x="168.00"
         y="78.00"
         id="137" />
    </clipPath>
    <clipPath
       id="142_text_clipper">
      <rect
         height="54.00"
         width="93.00"
         x="168.00"
         y="105.00"
         id="143" />
    </clipPath>
    <clipPath
       id="153_text_clipper">
      <rect
         height="81.00"
         width="160.00"
         x="168.00"
         y="238.00"
         id="154" />
    </clipPath>
    <clipPath
       id="159_text_clipper">
      <rect
         height="81.00"
         width="160.00"
         x="168.00"
         y="265.00"
         id="160" />
    </clipPath>
    <clipPath
       id="165_text_clipper">
      <rect
         height="81.00"
         width="160.00"
         x="168.00"
         y="292.00"
         id="166" />
    </clipPath>
    <clipPath
       id="176_text_clipper">
      <rect
         height="81.00"
         width="147.00"
         x="168.00"
         y="398.00"
         id="177" />
    </clipPath>
    <clipPath
       id="182_text_clipper">
      <rect
         height="81.00"
         width="147.00"
         x="168.00"
         y="425.00"
         id="183" />
    </clipPath>
    <clipPath
       id="188_text_clipper">
      <rect
         height="81.00"
         width="147.00"
         x="168.00"
         y="452.00"
         id="189" />
    </clipPath>
    <clipPath
       id="199_text_clipper">
      <rect
         height="54.00"
         width="105.00"
         x="168.00"
         y="558.00"
         id="200" />
    </clipPath>
    <clipPath
       id="205_text_clipper">
      <rect
         height="54.00"
         width="105.00"
         x="168.00"
         y="585.00"
         id="206" />
    </clipPath>
    <clipPath
       id="215_text_clipper">
      <rect
         height="27.00"
         width="152.00"
         x="8.00"
         y="238.00"
         id="216" />
    </clipPath>
    <clipPath
       id="225_text_clipper">
      <rect
         height="27.00"
         width="149.00"
         x="8.00"
         y="398.00"
         id="226" />
    </clipPath>
    <clipPath
       id="235_text_clipper">
      <rect
         height="27.00"
         width="133.00"
         x="8.00"
         y="558.00"
         id="236" />
    </clipPath>
  </defs>
</svg>
